<svg xmlns="http://www.w3.org/2000/svg" version="1.1" xmlns:xlink="http://www.w3.org/1999/xlink" viewBox="0 0 1188 972"><defs><linearGradient id="a">
        <stop offset="0" stop-color="#f9da9c" />
        <stop offset=".043" stop-color="#fbe0a1" />
        <stop offset=".067" stop-color="#fce6a6" />
        <stop offset=".145" stop-color="#f4d593" />
        <stop offset=".193" stop-color="#f5d797" />
        <stop offset=".243" stop-color="#f7dda4" />
        <stop offset=".263" stop-color="#f9e1ab" />
        <stop offset=".329" stop-color="#f7dfa8" />
        <stop offset=".383" stop-color="#f2d89e" />
        <stop offset=".398" stop-color="#efd599" />
        <stop offset=".461" stop-color="#f2d795" />
        <stop offset=".462" stop-color="#f2d795" />
        <stop offset=".527" stop-color="#f2d795" />
        <stop offset=".538" stop-color="#f2d795" />
        <stop offset=".538" stop-color="#f2d795" />
        <stop offset=".615" stop-color="#efda9c" />
        <stop offset=".735" stop-color="#f6e5ad" />
        <stop offset=".773" stop-color="#f9e9b4" />
        <stop offset=".822" stop-color="#f7e1a6" />
        <stop offset=".887" stop-color="#f5db9b" />
        <stop offset=".956" stop-color="#f4d997" />
        <stop offset=".967" stop-color="#f4da9c" />
        <stop offset="1" stop-color="#f4db9e" />
    </linearGradient><g id="black-king">
    <path fill="url(#a)" stroke="#63451a" stroke-width=".954" stroke-miterlimit="10" d="M77.6 15.4 50 5.8l-27.6 9.6-10.6 72.1v6.7h76.4v-6.7z" />
    <path fill="#63451a" fill-opacity=".75" d="M12.3 87.5h75.4v6.2H12.3z" />
    <path d="M51.5 35.8c-1.8.2-1.8.7-.3 2.1 2.4 2.3 3.5 2.7 3 7.3-.1.6.3 1.1 1.2.8 1.9-.6 5.7-.9 7.6-1.1 2-.2 4.1 2.6 5 5.6.5 1.7-2 1.8-3 1.8-2.5-.1-7.9.3-9.9.4-.4 0-.8.8-.8 1.3v7.7c0 .6.3 1.6.8 1.6 3.3.1 11.2-.3 15.5 0 2.7.2 7.7 2.2 8.5 6.2.2.9-.1 2.5-.3 3.6-.1.4-.4.7-.9.7-.4-.1-1.1-.2-1.4-.3-2.9-1-5.8-2.5-8.7-3-8.8-1.4-17.5.2-26.2 3-3.6 1.2-7.4 2.2-11 3.1-3.4.9-8.4-4-9.5-9.3-.1-.4.3-.7.6-.6 5.2 2.4 10.4 2.5 15.3 1.1 3.2-.9 6.2-2.3 9.4-3 1.7-.5 1.7-.8 1.6-2.8-.1-2.1.1-5.1.2-7.3 0-.5-.4-.9-.8-.8-5.6.5-11.7.7-13.5-7-.1-.4.3-.7.5-.5 6.1 3.2 11.5 1.5 13.5 1 .3-.1.5-.4.5-.7.1-3.2-1.2-7.7-1.8-9-.1-.3-.4-.5-.5-.4-1 .3-3.3.9-4.5 1-3.5.3-6-2.3-8-6.4-.2-.4-.3-1-.3-1.6 0-.5.3-1.1.7-1.2.3-.1.6-.2.8-.1 5.8 3.2 11.6 1.6 17.4.2 4.1-1 8.1-2.3 12.1-3.3 2.8-.8 5.8 1.2 6.5 4.4.3 1 .2 2.4-.1 3.4-.1.5-1.2.5-1.7.5-5.7.3-17.4 1.6-17.5 1.6z" />
    <path d="M65.8 27c-.2.5-1.1.7-4.8 1.4-3.6.7-6.8 2-6.8 1.5.1-.5 12-4.1 11.6-2.9zm-1.5 19.1c0 .3.6 1.4-1.5 1.6-.9.1-2.5-1-2.5-1.2-.1-.8 4.1-1 4-.4zM34.8 69.5c1 0-.5 1.2-3.6 2.1-.9.3-4-1.2-4-1.5.1-.7 5.8-.7 7.6-.6z" fill="#fff" />
    </g><g id="black-tama">
    <path fill="url(#a)" stroke="#63451a" stroke-width=".954" stroke-miterlimit="10" d="M77.6 15.4 50 5.8l-27.6 9.6-10.6 72.1v6.7h76.4v-6.7z" />
    <path fill="#63451a" fill-opacity=".75" d="M12.3 87.5h75.4v6.2H12.3z" />
    <path d="M48.6 34.2c2.5 1.7 3.5 4.6 3.6 7.9.1 2.1.9 2.4 2.5 2.1 2.9-.5 6-.7 9-.7 4 0 6 3.5 5.7 4.8-.2.9-4.3 1.7-5.8 1.8-3 .3-6.1.3-9 .6-1.4.1-2.1.9-1.9 3 .3 2.9.1 5.9.3 8.8 0 .6 1 1.5 1.6 1.4 1.3 0 4.7-.6 5.9-.5.5 0 1.7 0 1.4-4.8-.2-1.2-.2-2.4-.4-3.7 0-.2.1-.3.2-.2.9.8 1.8 1.6 2.5 2.6 2.2 2.7 4.2 5.5 6.2 8.4.5.7 1.2 1.7 1 2.7-.2.9-1.7 1.5-2.5 1.5-4.7.2-9.5-.1-14.2.4-8.4.7-16.4 3.7-24.3 7.4-2.2 1-4.5 1.5-6.7 1.9-2.7.5-5-2.5-3.7-5.3 2.5-5.8 6.5-9.8 11.3-12.8.1-.1.3.1.2.3-1.3 2.9-2.5 5.8-3.7 8.7-.2.6.1 1 .6.9 5.6-1.8 11-3.4 16.6-5.3.6-.2 1.5-1.2 1.5-1.9.1-3.7.1-7.4.1-11.1 0-.1-.1-.2-.2-.2-2.4.3-4.5.7-6.5.7-3.2 0-6.1-1.4-8.3-4.4-.5-.7-2.3-2.9-.9-3.4.8-.3 1.8-.1 2.4.2 3.9 1.4 7.8 1.6 11.7.4.6-.2 1.3-1.4 1.3-2.1.1-1.6-.2-3.2-.4-4.7-.6-3.6-2.2-5-5.3-4.8-4 .3-7.7-.7-10.5-4.7-.3-.5-1.3-2.2-.6-2.7.5-.3 1.2.1 1.6.2 8.6 2.2 16.8.1 25.1-2.1 3.1-.8 6.4-1.2 9.5-2.1 2.5-.7 4.4.5 6.2 2.3 1.6 1.8 1.3 3.5-.9 4.1-2.3.7-4.8.7-7.1 1.1-4.9.7-9.8 1.6-14.7 2.4-.5 0-.8.7-.4.9z" />
    <path d="M67.9 53.1c4.1 2.9 8.2 5.6 12.2 8.8 1.7 1.3 1.5 4.7.1 6.1-1.8 1.9-3.6 1.6-5.1-.7-2.4-3.8-5.1-7.4-7.2-11.5-.4-.8-.9-3.4 0-2.7z" />
    <path d="M66.9 24.2c-.2.5-1.2.7-5.3 1.3-3.9.7-7.4 1.9-7.4 1.4 0-.4 13-3.8 12.7-2.7zM31 71.6c0 .3-.2 1.6-1.3 2-1 .3-2-.4-2-.7.1-.7 3.4-1.9 3.3-1.3zm35.6-26.1c0 .3-1.5.5-2.4.7-1 .3-2.7-.9-2.7-1.1-.2-.7 5.2-.2 5.1.4z" fill="#fff" />
    </g><g id="black-rook">
    <path fill="url(#a)" stroke="#63451a" stroke-width=".954" stroke-miterlimit="10" d="M77.6 15.4 50 5.8l-27.6 9.6-10.6 72.1v6.7h76.4v-6.7z" />
    <path fill="#63451a" fill-opacity=".75" d="M12.3 87.5h75.4v6.2H12.3z" />
    <path d="M43.2 63.3c.2-.3.6-.3.8-.1.7.6 1.3 1.1 1.9 1.7 1.1 1 2 1.3 2.1-1 .1-3.3.3-6.6.4-9.9-3.5.4-5.9 2.7-6.6 6.4-1.7 8.8-6 14.5-12.9 16.9-1.9.7-4 .8-6 .6-1-.1-2.1-1-3.1-2.1 4-.5 7.9-1.2 11.3-3.9 3.3-2.6 5.9-6 7.3-10.7-.5-.3-.4-.3-.8-.5-2 1.8-3.9 3.6-5.8 5.5-2 1.9-3.7 1.7-5.3-.7-2.2-3.2-3.4-6.9-3.4-11.2 1.6 2.2 3.1 4.4 4.7 6.6.5.6 1.5 1.3 1.8 1 1-.8 2.5-1 2.4-3.4-.2-4.8-.3-9.7-3.5-13.2-.5-.5-.8-1.2-.8-2.4 2.1 1.1 4.3 2 6.1 3.7.9.9 1.1 3.4 1.4 5.2.2 1.8.1 3.6.1 5.4 4.2-1.4 5.6-7.1 3-11.8-.5-2.1-1.7-3.8-3.3-5.8-.2-.3.1-.6.4-.5 2.1 1 4.5 1.8 6.2 3.4 2.6 2.4 1.2 6.2 1.5 9.5 2.1-.4 4.1-1.1 4.9-1.6 1.8-1 .6-7.2-.1-9.7-.3-.9-2.5-4.6-2.9-5.6 2.1 0 5.9 1.8 6.5 2.8.7 1.1.6 3.6.5 5.9 0 .4 0 .8-.1 1.1-.1 3.5-.1 3.5 2.4 2.6 1.9-.7 3.3.8 3.4 3.6.1 2.5.1 5.2 0 7.7-.1 4.5 2.2 9.4 5.5 10.3 3.1 1.4 6.5 1.7 9.1 1.3.9-.1 1.7-.8 1.3-2.7-.7-3.4-.9-6.4-1.4-9.9-.1-.8.2-1.2.2-1.2 2 4.4 4.5 8.6 7.5 12.3.8 1.4.3 3.4-1.2 4.3-6.2 3.8-17 .9-21.8-5.4-2.7-3.7-3-7.9-2.9-12.6 0-1.1 1-3.5-.9-3.5-1.8 0-1.3 2.2-1.3 3.7-.1 4.3 0 8.7-.3 13-.1 1.3-.8 3.4-1.7 3.8-.8.3-2.3-.9-3-2-1.4-1.9-2.5-4.1-3.8-6.2-.1-.1 0-.4.2-.7z" />
    <path d="M38.9 26.8c6.3 3.7 12.3.9 18.3.1 2.3-.3 4.3-.8 5.5 2.9 1.3-1.7 1.9-2.9.5-4.6-.8-1-1.5-2.4-2-4 2.2 1.2 4.4 2.4 6.6 3.7 1.9 1.1 1.9 2.7.2 4.3-1.4 1.3-2.9 2.6-4.4 3.9.8 1.3 1.7 2.4 2.1 3.8.1.4.1.8 0 1.3-.2.9-1.3 1.4-2.2.9-.2-.1-.4-.3-.6-.5-.8-1.2-1.3-2.7-2.3-4.7-1.4 3-1.5 5.5-.7 8 1.4 4 4.6 7.3 8.1 6.9.5-.1 1.1-1.3 1.1-2.1 0-2-.4-5-.7-7.2.5.2.8.2.9.4 1.4 2.7 2.9 4.4 5.5 7.3 1.5 1.9 1.4 3.6-.5 4.6-6 3.4-15.3-1.2-17.3-9.1-.7-2.6-.3-5.8 0-8.7.2-2.1 0-2.6-1.7-2.3-2.9.7-5.8 1.1-8.7 1.4-3.3.5-6.8-2.2-7.7-6.3z" />
    <path d="M60.2 52c-.3-.3.1-.8.5-.7 1.9.6 4.3 2.4 4.3 3.4-.1 1.5-1.4 4.3-2.1 5-.1.1-.1.4 0 .5 1.1.7 2.1 1.7 2.7 2.8.5.8.7 2.5.2 3.3-.8 1.3-1.9 1-2.7-.2-.7-.8-1.2-1.8-1.9-2.6-2.4-3-2.3-2.9-.7-6.7.4-.9.8-2.1.6-3.2-.2-.5-.5-1.2-.9-1.6z" />
    <path d="M56.8 27.6c0 .4-5.7 1.9-6.7 2-2.9.5-5.5.3-5.3-.2.4-.5 1.8 0 5.2-.6.9 0 6.8-1.6 6.8-1.2zm16.9 44.2c-.6.7-2.3.8-2.7.5-.5-.4-1-1-.7-1 .6 0 2.3 0 3.5-.8.4-.2.3.7-.1 1.3zm-41.8-9.6c-.6.7-1.7 1-2.3.7-.5-.4-.6-.8-.2-.8.6 0 1.1-.5 2.4-1.2.5-.3.6.8.1 1.3z" fill="#fff" />
    </g><g id="black-bishop">
    <path fill="url(#a)" stroke="#63451a" stroke-width=".954" stroke-miterlimit="10" d="M77.6 15.4 50 5.8l-27.6 9.6-10.6 72.1v6.7h76.4v-6.7z" />
    <path fill="#63451a" fill-opacity=".75" d="M12.3 87.5h75.4v6.2H12.3z" />
    <path d="M56.3 70.8c2.1 1.8 3.3 3 5.1 3.9 1.4.8 2.3-1.1 2.3-3V67c0-.9-.2-.8-4.4-.5-1.7.1-3.6.4-4.2.5-.1 0-.3.2-.3.4 0 .8-.1 3.3-.3 5.7-.3 4.3-2.4 6.7-5.9 8.5-.1 0-.2 0-.1-.1.2-2.5.4-4.5.6-6.4.3-2.7.5-5.8.5-6.8 0-.2-.1-.4-.3-.4h-5.9c-.2 0-.4.2-.5.5-.2.8-1.1 5.6-3.1 6.3-.9.3-1.8-.1-2.1-.8-.5-1-.5-1.9-.4-2.9.4-3.9 1.4-7.7 1.4-11.4-.1-5-1-10.1-1.6-15.1 0-.2-.1-.4-.1-.7-.1-.5.4-1 .8-.7.5.4 3.9 4.2 4.4 4.2.3 0-2.1-3.2-2.2-3.7-.2-.8 0-1 .2-1.2.5-.4 1.4-.4 2-.2 5.4.8 10.6-.8 15.9-1.9 2.5-.5 5.1-.8 7.6-.8 2.4 0 4 2.4 3.9 5.5-.1 4.8-.2 9.6-.3 14.5-.1 5.3-.1 10.6 0 15.9 0 2.3-.5 4.2-2.2 4.7-1.4.5-3.5.4-4.7-.4-2-1.3-4.5-3.9-6.6-7.5-.6-.9 0-1.9.5-1.4zm7.3-17.4c.1.1.2.1.2-.1 0-2.6.2-4.2-.1-5.8-.1-.8-1.2-2-1.7-2-2.5.3-4.9 1-7.4 1.6-.2 0-.3.2-.4.3l-.1.2c-.1.2 0 .5.1.7.3.9.9 2.8 1.1 3.4 0 .1.1.2.3.2 2.4-.4 6.1-1.8 8 1.5zm-.2 3.3c0-.3-.1-.5-.3-.6-.1 0-.2-.1-.3-.1-1.2.2-5.6 1.1-6.8 1.3-.2 0-.3.2-.3.4l-.2 4.1c0 .2.1.4.3.4 1.3-.2 5.7-.9 7.5-.9.1 0 .1-.1.1-.1v-4.5zm-16.5 6.1c.6 0 1.9 0 2.4-.1.1 0 .3-.1.3-.3.1-.5.3-3.6.3-4 0-.2-.1-.3-.2-.4-1-.1-5.7-.7-6.1-.8-.2-.1-.3.2-.4.4-.1.5-.2 4.2-.2 4.7 0 .2.1.3.2.3.5.1 3.7.2 3.7.2zm-3.4-15.2c-.1 0-.2.1-.2.2 0 1.5.4 3.6.5 4.4 0 .2.1.3.3.3.6 0 2.4.2 3.6.3 1.1.1 2 .1 2.3 0 .1 0 .2-.1.2-.2v-1.8c-.1-1-.1-1.7-.3-2.5-.1-.4-1.3-.4-2.3-.4-1.3-.1-2.6-.1-4.1-.3z" />
    <path d="M22 44.3c-.3-.3-.3-1 .1-1.1 8.4-1.5 19.5-10.7 23.7-17.2 1.1-2.1 1.8-2.1.2-4.2-.7-.9-1.1-2.1-1.4-3.4-.1-.5.2-.9.6-.8 3.3 1.1 6.7 1.7 8.5 6 .2.5.9.8 1.4.8 3.2.2 6.4-.1 9.5.4 1.5.2 3.5 1 4.2 2.9.4.9.1 2.4-.4 2.9-.7.7-1.9 1-2.9 1.1-2.8.1-5.2 1.1-7.3 3.6-2.8 3.4-6 6.2-10.3 6.1h-.2c-.4-.1-.6-.7-.3-1.1 2.1-2.4 4.1-4.5 6.1-6.8.7-.8 1.3-1.7 1.9-2.6.2-.3.1-.8-.2-1-1-.6-2-1.3-3-1.4s-2.2.6-3.1 1.3C44.2 34.7 35 43.9 26.7 45.3c-1.5.2-3.1.4-4.7-1z" />
    <ellipse transform="rotate(-69.898 48.547 20.285)" fill="#fff" cx="48.5" cy="20.3" rx=".6" ry="1.3" />
    <path fill="#fff" d="M66.4 26.8c-.2.2-2.8.1-3.6-.1-.7-.1-1.7-.9-1.6-1.2.1-.6 3.9.2 4.6.3.6.2 1 .6.6 1zm-.9 14.8c-.3.3-4.6 1.3-5.9 1.4-1.2.1-3-.3-2.9-.7.1-.7 6.4-1.5 7.6-1.6 1.2-.1 1.9.2 1.2.9z" />
</g><g id="black-gold">
    <path fill="url(#a)" stroke="#63451a" stroke-width=".92" stroke-miterlimit="10" d="M74.4 17.5 50 8.7l-24.4 8.8L16.2 84v7.3h67.6V84z" />
    <path fill="#63451a" fill-opacity=".75" d="M16.7 84h66.7v6.8H16.7z" />
    <path d="M55.5 44.8c.4 0 1 .3 1.3.6.1.1.1.2.1.2.7 1.8 0 2.2-1.3 2.3-2.2.2-5.3.5-7.5.6.9 3.6.1 3.8 4.6 3.2 1.9-.2 3.9-.2 5.8-.2.7 0 1.5.1 1.9.6.6.7 1.5 1.9 1.4 2.8-.2 1.9-6.2-.3-7.3 0 3.8 1.9 3.4 5.4 2 6.6-1.6 1.3-3.4 2.2-5.1 3.4-.4.3-1.2.8-.6 1.7h.8c3.5-.1 7-.3 10.5-.3 2.4 0 4.5.9 5.6 3.7.3.6.4 1.7.1 2.1s-1.2.6-1.7.3c-4.2-2.7-8.7-2.1-13.1-1.8-5 .5-10 1.8-15 2.9-3.7.7-7.3-1.4-8.1-5.1 2 .3 4.1 1 6.2.8 3-.3 5.9-1.1 8.8-1.9.3-.1.6-.5.8-.9s.4-.8.4-1.2c.1-1.4-.1-2.9-.3-5-1.1 1.7-1.8 2.9-2.5 4.1-1.3 2-3.3 2.2-4.8.6-1.8-2-2.9-4.3-3.3-8 1.1 1.2 2 2 2.8 2.9 2.4 2.4 2.6 2.5 5.3.6 1-.6 2.5-2.3 2.6-2.8.1-.6-.1-2-.1-2s-7.8 3-9.7.8c-.7-.8-1.1-1.8-1.7-2.8 3.5.6 6.9.6 10.4-.6l.9-.3c.2-.1.4-.3.3-.6l-.5-3.2s-3.8.3-5-1.2c-.1-.1-.3-.5-.7 0-1.8 2-7.8 7.1-8.9 7.7-2 1.2-4.1 1.5-6.5.6 8.2-5.8 18.8-15.1 21.6-23 .9-1.5.1-2.6-.6-3.8-1.1-1.9-1.2-2.6-1.5-3.5-.2-.6.4-1.1.8-.7 1.8 1.4 3.8 2.7 5.5 4.2.6.6 1.1 2.1.8 2.9-.1.5-.4 1.2-.4 1.4.1.1.8.8 1.2 1.3 6.3 6.5 13 12.1 21 14.8.9.3 3.9 2.1 2.3 2.3C63.8 56 58.2 46 56.7 44.6c-1.8-1.8-3.4-3.6-5.2-5.3-3.3-3.1-2.2-3.1-5.3.5-1.4 1.6-2.5 3.5-3.9 5.3-.1.1 0 .3.1.3 1.2.1 11.6-.7 13.1-.6zm-4.9 19.3s2.5-3.2 2.8-4.3c.3-.8.4-3.1.3-4.8-1.1-.2-2.6 0-3.6 0-.2 0-.4.2-.3.5.2 1.2.5 6.8.8 8.6z" />
    <path d="M48.2 29.1c-.2.3-.8.1-1.4-.5-.6-.6-1-1.2-.8-1.6.2-.3.6.1 1.2.6.7.7 1.1 1.2 1 1.5zm-5.1 32.8c0 .4-1.4 1.4-2.1 1.5-.8 0-1.8-1-1.9-1.4 0-.4 1.1.4 1.9.4s2.1-.9 2.1-.5zm22.3 6.5c0 .4-.9.6-1.6.4-.8-.2-3.3-.7-3.3-1.1s2.4-.3 3.2-.2c.8.2 1.7.6 1.7.9z" fill="#fff" />
</g><g id="black-silver">
<path fill="url(#a)" stroke="#63451a" stroke-width=".922" stroke-miterlimit="10" d="M74.5 17.5 50 8.6l-24.5 8.9-9.4 66.6v7.3h67.8v-7.3z" />
    <path fill="#63451a" fill-opacity=".75" d="M16.6 84.1h66.8v6.8H16.6z" />
    <path d="M53.5 34.1c-1.1.2-2.1.5-3 .5-1 0-3.6-.3-4.3-1.9-.7-2.3-3.4-4.3-5.9-3.9-.1 0-.2.2-.1.3.2.3.3.6.5.7 1.8 1.7 1.7 3.4.3 5.6-4.1 6.3-8.7 12-14.2 16.6-1.5 1.2-3 2.4-4.4 3.5-.1.1-.1.3.1.3 1 .1 1.9-.1 2.8-.4 3.8-1.1 6.1-3.1 8.9-6.2.4-.6 1.1-1.6 1.4-1.6.6 0 3 .6 3.4 1.6 1.1 1.8.9 2.7-.8 3.9-.8.6-2.2 1.1-4.3 1.7-2.3.5-3.2.6-5.5.5-.1 0-.2.2-.1.3 4.1 3.5 7.9 2.2 11.7.1.1 0 .2 0 .2.1.5 2.3.2 2.7-.8 4.1-2.5 3.1-4.1-.3-6-.9-.1 0-.2.1-.2.2.4 2.4 2.6 5.3 3.9 5.3 1.2 0 2.8-2.9 3.6-5.3-.2 1.2-.3 6.7-.9 7.5-2.9 3.8-6.7 4-10.7 2.7-.1 0-.2.1-.2.2 1.7 3.4 6.2 5.4 9.2 3.3 1.7-1 3.2-2.3 4.9-3.4 3.6-2.7 7.3-5.4 11.1-8.3.1-.1.2 0 .2.1.1.7.2 1.5.2 2.1.2 2.3.3 4.7.5 7 .2 2.2 1.8 3.5 3.4 2.9 1.6-.6 5.3-9.8 6.7-13 0-.1.2-.1.2 0 2.7 2.6 5.1 4.9 7.4 7.2 1 1 1.7.8 2.1-.5.8-2.8-.3-5.9-2.7-7.3-2.8-1.6-5.5-3-8.5-4.8-.1-.1-.1-.2 0-.3.6-.6.8-.9 1.4-1.2 2.1-1.6 4.3-3 6.4-4.6 2.5-1.9 1.6-5.6-1-6.3-.6-.1-1.8-.5-1.8-.5 0-.4 1.8-4.4 2-7.4.7-6.9.1-6.9-5.4-5.4-.6.2-2.4.6-3.4.9-3.2.7-9 1.2-9.3 1.2-.4 0-.6.5-.3.7.3.8.8 1.4 1.3 2.1m.7 23.3c0 .7-.5 1.9-1 2.2-2.6 1.6-5.3 2.9-8 4.4-.1 0-.2 0-.2-.1-.2-.9-.4-2.2-.2-2.9v-.1c.1-.1.7-.6 1.8-1.4.9-.6 1.9-1.1 2.8-1.9 2.4-2.2 2-3 1-6 0-.1 0-.2.1-.2.6 0 1.5-.2 1.8-.6.4-.6.5-1.2.4-2-.1-1-1-.9-1.6-.9-1.1 0-3.5.7-5.2 1.6-.6.4-1.8.7-2.1.7-.2 0-1.2-.9-2-1.9-.1-.1 0-.2.1-.3 2.3-.8 4.4-1.7 6.7-2.4.4-.1 1.2-.6 1.6-.8.9-.6 1.1-1.8.9-2.5-.3-.8-1.6-1-2.2-.9-1.7.4-3.2 1.4-4.9 1.9-1.7.6-3.1 1-5.1 1.1-.1 0-.2-.2-.1-.3 1.1-1.8 2.4-3.6 3.5-5.3.7-1.4 1.7-2.5 2.7-3.8.1-.1.1-.1.2 0 1 .9 2.1 1.9 3.1 2.9 2.5 2.3 2.5 2.4 5 .1.1-.1.2 0 .3.1.2 1.2.5 2.3.6 3.4v15.9zm-9.6-3.6c.3-.9 2.9-1.9 3.5-1.9.1 0 .1.1.1.2v2.1c-.1 1.1-2.3 5.1-3.6 5.7.1-1.3-.2-5.5 0-6.1zm9.5-19.4c4.3.6 13-1.8 13-1.6-.1 2.4-.6 3.8-.8 3.9-.2.2-9 1.6-9.3 1.2-.9-.5-1.3-2-2.9-3.5m11.5 5.9c0 .5-.6 3.8-1.2 3.9-1.8.5-5 .8-6.9.9-.2-1.4-.3-3.4-.1-3.6.2-.2 8.2-1.7 8.2-1.2zm-6.3 25.5c-.5.5-1.2.1-1.4-.6 0-.6-.1-1-.1-1.4-.1-5.1-.2-8.3-.4-13.2 0-1.5.4-2.2 1.7-2.4 1.2-.1 2.5-.2 3.7-.3 3.2-.3 3.6-.2 4.8-3.7.1-.2.5-1.4.6-1.6.1-.1.5.3.6.5 0 0 1 1.4-.9 3.3-2.5 2.4-5 4.6-7.7 6.7-1.7 1.4-1.8 2.4-.1 3.6.7.6 1.5 1.1 2.3 1.7.6.4 1.4.7 1.8.9.2.1.3.3.2.5-.4.9-4 4.8-5.1 6z" />
    <path fill="#fff" d="M63 30.7c0 .2-5.7 1.2-6.2 1.2-1.7.2-3.5.3-3.3.1s1.4-.2 3.3-.5c.4 0 6.2-1 6.2-.8zm7.8 14.4c0 .6-1.8 1.9-2.2 1.9-.5 0 1.2-1.4 1-2-.2-.7-.1-1.4.4-1.4s.8.8.8 1.5zM60.3 66.7c-.1.4-.7 1.7-1.3 1.7s-.7-.2-.7-.6 1.1-1.6 1.7-1.8c.4-.2.4.3.3.7z" />
    <ellipse transform="rotate(-13.026 47.697 43.01)" fill="#fff" cx="47.7" cy="43" rx="1.3" ry=".6" />
    <path fill="#fff" d="M37.8 70.1c-.3.3-2.8 1.7-3.2 1.4-.6-.3-.5-.6-.1-.7.8-.3 2.8-1 3.4-1.4.3-.2.1.5-.1.7z" />
</g><g id="black-knight">
    <path fill="url(#a)" stroke="#63451a" stroke-width=".924" stroke-miterlimit="10" d="M73.5 19.4 50 11l-23.5 8.4-9 63V89h65v-6.6z" />
    <path fill="#63451a" fill-opacity=".75" d="M18 82.4h64v6H18z" />
    <path d="M29 46.3c-.1-.2 0-.5.3-.5.8.1 1.9.4 2.5.5 2.5 1.1 5.9-.6 9-2.3.5-.3 1.4-1.1 1.4-1.7.1-3.5.3-6.1-1.7-9.2-1.2-1.6-2.6-2.7-2.7-3.5-.1-.3.1-.5.3-.5.6-.2 2.2-.3 3.4 0 1.6.4 2.9 1.1 3.6 2.1.9 1.5.8 3.8.5 6.6-.1 1.1-.1 2.3-.2 3.5 0 .2.2.4.3.4 1.2-.4 2.1-.8 3-.7 1 .1 2.1.7 2.8 1.6.8.9.2 1.6-.8 1.9-1.2.3-4.1 1.5-5 1.7-.1 0-.2.2-.2.4 0 .5-.1 2-.2 2.6 0 .7.3.9.8 1.2.7.4 1.2 0 1.4.4.4.5.2 1.5-.3 2.2-.2.3-.5.6-.8 1-.1.1-.1.4 0 .5.9 1 1.9 2 2.8 3 .8.9 1.8 2.1.7 3.5s-2.1.5-2.9-.8l-.4-.7c-.2-.3-.4-.1-.4.2 0 1.4-.1 3.6-.1 4.5 0 .3.2.5.3.5.6.2 1.7.5 2.4.5 1.4 0 2.9-.5 4.4-.7 1.2-.2 2.5-.6 3.3-1 .3-.2.6-.6.6-1.1 0-.8-.1-2.1-.2-3.4 0-.4-.3-.6-.6-.5-3.1.7-5.2-.1-6.8-3.6-.1-.2.1-.5.3-.5 1.5.1 2.9.4 4.3.3.8-.1 1.4-.2 1.9-.2.3 0 .4-.3.4-.5 0-.6 0-1.7-.2-2.7 0-.2-.2-.3-.3-.3-4.3 1.9-6.4 1.3-8.2-2.7-.1-.2 0-.5.2-.5.7 0 1.3-.1 1.9-.1 1.4-.2 5-.7 6.2-.9.2 0 .3-.3.3-.5V44c-.3-.8-.3-1.8-.3-2.3 0-.2-.2-.3-.3-.3-.3.1-.9.3-1.4.4-2.1.5-3.5-1.2-4.9-3.4-.2-.2 0-.5.3-.5 1.4.2 2.5.4 3.6.5.8 0 1.9-.2 2.4-.3.1 0 .2-.2.2-.3 0-.7.1-2.7-.6-4-.8-1.7-2.5-3.9-3.6-5.5-.1-.1-.3-.5.1-.5 0 0 4.1-.2 6.3 2 .8.7.9 5.5 1 6.9 0 .2.2.4.3.3.6-.3 1.9-.8 2.5-1 1-.5 2.1-.6 3.1-.8 1.1-.2 2.9 2.9 2.5 4.1-.2.5-.8.8-1.2.9-1.3.2-2.5.2-3.8.4-.9.1-2.4.4-3 .5-.2 0-.3.2-.3.5 0 .7.1 2.2.3 3.8 0 .3.3.5.4.4 1.2-.5 3-1.3 4.1-1.7 1.9-.9 3.2.3 4.4 1.8.3.5.5 1.5.3 1.9-.2.5-.8.7-1.4.8-1.7.3-3.5.4-5.2.5-.7.1-1.7.4-2.1.5-.2.1-.3.2-.3.4 0 .5 0 1.7.1 2.6 0 .4.3.6.7.5.8-.4 1.8-.8 2.4-1.1 2-1 3.4.3 4.6 2.2.3.5.3 1.4.1 1.9-.2.4-.8.5-1.3.6-1.5.2-3 .2-4.6.6-.2.1-.8.2-1.3.3-.1 0-.2.2-.2.3.1.9.2 3.6.3 4 0 .3.2.4.4.4.4-.1 1.1-.3 1.9-.5 2.7-.5 5.3-1.1 7.9 1.2 1.3 1.1 1.4 2.9 1.8 4.1.1.5-.2 1-.5.8-4.8-3.3-12.3-1-17.2 0-1.6.4-3.1 1.1-4.7 1.1-1.1 0-2.5-1.1-3.7-2.2-.3-.2-.5 0-.5.4 0 1 0 2.5-.1 3.5-.2 2-.4 3.5-1.7 3.9-2.7.8-6-4.2-7.6-6.6-.2-.3-.7-1.1-1.2-1.9-.2-.3.1-.5.3-.5 2 1.3 3.8 2.2 5.8 3.1.2.1.3-.1.3-.3.2-3.6.3-6.9.4-10.6 0-.3-.3-.5-.4-.3-2.5 2.2-4.5 4-6.5 5.8-2.4 2-4.8 4.1-7.8 4.5-1 .1-2.1-.3-3.1-.5-.2 0-.3-.2-.3-.5 0-.2.1-.4.2-.5.3-.2.4-.4.7-.5 6.7-1.7 11.6-7.2 16.3-12.9.7-.8.4-2.8.6-4.4v-.7c0-.2-.2-.4-.3-.3-.3.1-3.3 2.1-5.2 2.6-2.9 1.3-5.3 0-7.3-3.8z" />
    <path d="M40.3 29.8c0 .3-.4.4-.9.3s-.8-.4-.8-.5c0-.3.5-.4.9-.3.6.2.8.2.8.5zm14.1-1.3c0 .2-.4.2-.8.1-.5-.1-.8-.2-.8-.4s.4-.3.8-.2c.4 0 .8.3.8.5zm-21.3 19c0 .4-.6.5-1.2.5-.6-.1-1.1-.5-1.1-.8s.5-.3 1.1-.2c.6.1 1.3.2 1.2.5zm35 14.7c0 .5-.8.8-1.9.8s-1.9-.3-1.9-.7.8-.5 1.9-.5c1 0 1.9 0 1.9.4z" fill="#fff" />
</g><g id="black-lance">
    <path fill="url(#a)" stroke="#63451a" stroke-width=".924" stroke-miterlimit="10" d="M73.5 19.4 50 11l-23.5 8.4-9 63V89h65v-6.6z" />
    <path fill="#63451a" fill-opacity=".75" d="M18 82.4h64v6H18z" />
    <path d="M45.7 72.6c-.2 0-.4-.1-.6-.2-1.8-1-2.2-2.1-2.8-4.1-.7-2.6-1.2-5.2-1.9-7.7-.5-2.1-.4-1.9 1.1-1.4h.1c.4.1 1 .3 1.4.3.3.1.4.3.5.5.2.3 1 2.7 1.5 3.9.2.4.5.6.9.5.3-.1.9-.2 1.3-.3 1.6-.5 5.7-.3 6 .2.7.6.6.8.6 1.3 0 1.2-4.8 1.1-5.6 1-1.2-.1-2.3-.5-2.6-.7-.1-.1-.2 0-.2.2-.1 1.2.3 2.8.8 3.6.1.1.1.2.3.2h.3c2.7-.1 5.3-.3 8.1-.5.3 0 .6-.3.9-.5.3-.3.4-.6.5-.9.4-1.8.7-3.6.9-5.4.2-1.2-.2-1.5-1.3-1.4-2.3.3-4.7.3-7.1.5-1.6.1-2.9-.4-4-1.5-.6-.5-.3-1.5.5-1.5 4.5-.2 8.8-.9 12.9-1.8 1.4-.2 2.9 1.5 2.8 3-.5 4-1.1 7.8-1.9 11.8-.3 1.8-1.7 1.6-3 1.6-2.5-.1-8.9-.5-10.4-.7z" />
    <path d="M48.9 51.5c.3 0 0-1.4 0-1.7-.1-.8-.3-2.2-.3-3.1 0-.3-.3-.5-.6-.4-.6.2-1.6.4-2.1.6-2.1.5-2.1.5-.9 2.8.6 1.3.9 2.6-.3 3.8-4 4.3-9.4 12.2-16.7 13-1.6.2-2.2-.9-1.6-2.2.5-1.2 2.1-3.9 3.3-5.6.3-.4.9-.2.9.3l-.3 2.6c0 .8.3.6.7.4 4.1-3.4 8.5-7.7 10.8-13.2.2-.3-.1-.8-.5-.7-3.7 1-7.1 1.6-9.8-1.8-.3-.3 0-.8.3-.8 3.4 0 10.3-.9 14.9-2.1.7-.2 1.2-.5 1.5-.9.4-.5.6-1.3.5-2.2 0-.5-.1-1.1 0-1.7 0-.3.3-.5.5-.4.7.3 1.5.5 2.1.8l.3.3c.2.8.5 1.5.7 2.1.1.3.3.5.6.5 2.1.3 7.1-.8 8.6-.7.9 0 3.9-.3 4.2 2.9.1.7-.3 1.4-.9 1.5-2.1.5-6.8-.3-9.1-.3-.9 0-2.1.1-2.6.2-.2 0-.3.3-.3.4v2.9c0 2.1.1 6.9-3 7.6-.2.1-.4-.1-.5-.3-.7-1.1-1.7-3.5-2.6-5.4-.1-.2.1-.4.3-.3.6.2 1.4 1 1.9 1.1zM51 27.2c-.1-.3.2-.7.4-.5 1.9.9 4.2 1.9 5.9 2.9 1.8 1.1 1.7 3.7-.2 4.6-4.7 2.1-13.8 3.7-17.6 4.1-.4 0-.6-.6-.2-.9.7-.3 1.4-.7 2.1-1 3.2-1.4 6.3-2.8 9.5-4.1 1.5-.6 1.9-1.3 1.1-2.8-.2-.5-.7-1.5-1-2.3z" />
    <path d="M54.5 51.2c-.4-.3-.3-1 .3-.9 2.9.3 8.1 1.1 10.9 1.6 1.9.3 3.9.9 5.7 1.6 2.2.9 3.1 2.8 2.2 5-.2.4-1 .9-1.4.8-4.4-1.9-14-6.1-17.7-8.1z" />
    <path d="M55.7 29.5c1 .3 1.8.9 1.7 1.4-.1.3-.7 0-1.7-.3s-1.8-1.2-1.7-1.5c0-.5.7 0 1.7.4zM31.8 62c.6-.6 1.3-.9 1.5-.7.3.3-.3.6-.9 1.2-.6.6-1.5.9-1.6.6-.2-.3.4-.5 1-1.1zm34.7-9.2c.9.1 1.5.4 1.5.8 0 .3-.6.2-1.4.1-.9-.2-1.6-.7-1.6-1 0-.4.6 0 1.5.1z" fill="#fff" />
</g><g id="black-pawn">
    <path d="M72.6 21.1 50 12.9l-22.6 8.2-8.7 61v5h62.6v-5z" style="fill:url(#a);stroke:#63451a;stroke-width:.94400001;stroke-miterlimit:10" />
    <path d="M19.2 82.1h61.6v4.5H19.2z" style="opacity:.75;fill:#63451a" />
    <path d="M49.3 64.4c2.2-1.8 4.8-3.7 6.9-5.5 1-.9 1.7-.7 2.4.3 1.1 1.6 2.4 3.1 3.5 4.7.9 1 1.5.8 2.1-.3 1.3-2.5.7-4.2-2.6-6-2.1-1.2-2.1-1.2-.2-2.6 2.2-1.7 2.2-3.1 0-4.8-1-.7-2.5-1.7-4.2-2.4-.3-.1-.2-.6.1-.6 3.3.1 10.1.4 13.3.7.9.1 2.7.4 2.7-1.3-.1-1.1-.6-1.9-1.2-2.2-1.7-1.1-3.7-1.3-5.6-1.2-4.1.2-8.1.7-12.2 1.1-1.1.1-1.6-.2-1.5-1.3.1-.7.2-3.8.6-3.7.3 0 .6.5 1 .6 2.5.2 4.9.3 7.4.2 1 0 2.4-.6 2.7-1.2.3-1-1.5-1.8-2.4-2.2-.7-.3-1.5-.2-2.4-.1-1.5.1-3 .3-4.6.5-.8.1-1.4.5-1.7.3-.3-.2-.3-.8-.3-1 0-4-2.5-5.1-6-5.3-.4 0-.7.4-.4.7 2.6 3.4 1.9 7.2 2 10.9.1 1.9-.4 2.8-2.7 3.2-2.1.4-1.9-.3-1.9-1.7 0-1.3-.2-3.1-1-3.8-1-.9-3.6-1.9-4.8-2.2-.3-.1-.5.2-.3.5.2.4.5.8.8 1.2 1.1 1.7 1.8 3.6 1.4 5.7-.2 1.1-.6 1.7-1.7 1.7-3.9.2-7.2.4-11.3.6h-.6c-.1 0-.1.1 0 .3.3.7 1 1.8 1.7 2.3 3.3 2.2 7.1.7 10.8.4.4 0 .7.4.6.7-.6 1.4-1.7 2.8-2.6 3.8-1 1.1-1.5 2.2-.2 3.4 1.2 1 2.3.4 3.1-.7 1.4-1.8 2.5-3.7 3-5.6.3-.8.4-1.6.5-2.1.1-.6 1.8-.7 2.9-.7 3-.5 3.6-.2 3.4 2.9 0 .6 0 2-.1 2.8 0 .2-.2.3-.4.2-1-.5-2.5-1.1-3.5-1.4-.4-.1-.7.3-.5.7 1 1.5 2 2.7 3.4 4.4.4.4.4.5.7.6.1.1.8.2 1 .1 0 0-.1.2-.7.7-2.9 2.3-6.3 5.3-9.6 8-1.3 1-2.2 1.3-2.9 0-.9-1.4-1.6-3.1-2.6-4.7-.2-.3-.6-.2-.6.1-.2 3.3.6 6 1.7 8.5.8 1.6 1.5 2 3 .9 2.8-2.6 10.6-9.1 10.6-9.1zm8.4-13.6c.2.3.2.9 0 1.2-1 1.2-2.2 2.4-3.3 3.6-.3.3-.8.1-.9-.3-.3-2.5-.6-4.8-.8-7-.1-.6 1.3-.8 1.8-.9.1 0 .2 0 .3.1 1.1.8 2.2 2.2 2.9 3.3z" />
    <path d="M70.4 44.2c.2.2-1 .7-1.7.4-.9-.3-5.9-.4-9.4-.2-.1 0 10-1.5 11.1-.2z" style="fill:#fff" />
    <path transform="rotate(-75.741 61.94 37.31)" style="fill:#fff" d="M62.3 37.3a.4 1.4 0 0 1-.4 1.4.4 1.4 0 0 1-.4-1.4.4 1.4 0 0 1 .4-1.4.4 1.4 0 0 1 .4 1.4z" />
    <path d="M41.8 67.9c.1.2-.2 1-.9 1.5-.7.4-1.1.5-1.4.4-.1-.1-.2-.4 0-.5.2-.2.4-.2 1-.7.8-.6 1.2-1 1.3-.7z" style="fill:#fff" />
    <path transform="rotate(-75.741 49.545 31.982)" style="fill:#fff" d="M49.9 32a.4 1.4 0 0 1-.4 1.4.4 1.4 0 0 1-.4-1.4.4 1.4 0 0 1 .4-1.4.4 1.4 0 0 1 .4 1.4z" />
</g><g id="black-dragon">
    <path fill="url(#a)" stroke="#63451a" stroke-width=".954" stroke-miterlimit="10" d="M77.6 15.4 50 5.8l-27.6 9.6-10.6 72.1v6.7h76.4v-6.7z" />
    <path fill="#63451a" fill-opacity=".75" d="M12.3 87.5h75.4v6.2H12.3z" />
    <path fill="#c30" d="M29.9 66.6c-3 2.7-6.9 1.7-9.1-2.4 1.1.2 1.9.3 2.9.4 3.8.4 6.3-2.6 9-4.7 3.3-2.5 6.5-5.2 9.7-7.8 1.4-1.2 2.8-1.8 4.2.3 1.7-2.6 3.5-4.7 4.7-7.4.9-1.9 1.1-4.4 1.3-6.5.3-2.6.3-5.1.2-7.7-.1-1.1-.7-2.3-1.4-3.2-1.2-1.6-2.4-3.1-3.6-4.6-.3-.4 0-1 .5-.8 2 .9 4.1 1.8 6.1 2.7.2.1.5.2.6.3 1.5.9 2.6 2.3 2.1 4.5-.6 3.6-.6 7.2-1.1 10.8 0 .2.3.3.4.1.8-1.9 1.5-4 2.3-5.9.4-.7.8-1.5 1.5-1.9 1.8-1.5 1.8-1.5.2-3.5l-1.7-1.7c-.2-.2 0-.6.3-.6 2.5.8 5.1 1.4 7.5 2.4 1.1.5.6 3-.8 3.6-.6.3-1.4.4-2.1.6-.6.2-1.3.3-1.9.5 1.6 3.1 1.5 3.4-1 5.6-1.7 1.6-3.1 3.3-4.9 5.1-.1.1 0 .3.1.3.3 0 .6.1.7.2 2.2.4 2.9 2 2.5 4.5-.8 4.8-1.5 9.7-.8 14.6 0 .3.1.5.4 1.4 1.4-2.1 3.2-4.6 4.3-6.6.2-.4-1-.9-1.6-1.5-2.8-2.7-2.2-3.8-.5-5.9 1.6-1.8 1.4-3.1 0-4.5-.6-.5-1.1-.9-1.6-1.6 1.9-.8 6.4.8 7 2.7.3.7.3 1.4-.6 2.8-3.1 3.7-3 2.6.1 6.2 1.6 1.9 1.5 2.7-.1 4.5-1.7 2.1-3.3 4.2-5.2 6.6 3.9.8 7.3.7 10.1-2.3.5-.5.6-1.4.4-2.1-1.5-3.8-3.2-11.7-2.5-13.8 1.4 3.1 2.9 6.2 3.9 8.9.9 2.3 2.2 3.9 4 5 1.7 1.1 1.8 2.6.2 3.9-3.2 2.6-6.8 4.4-10.8 4.4-2.4 0-5.4-.6-7.7-1.1-.6-.1-.5-.2-1.5.5-3.7 3-9.5 4-10.2 3.3 3.7-1.6 6.9-4.2 8.8-5.8.5-.4.7-.7.6-1.7-.2-5.5-.1-11.9-.2-17.5 0-.7 0-3-.1-4 0-.1-.2-.1-.2 0-.3 1.3-.8 3.5-.9 4.5-.9 4.4-2.8 7.8-5.2 11.2-.6.9-.8 2.4-1.1 3.7-.6 2.7-1.1 5.3-1.8 8-.4 1.4-1.4 1.9-2.6.9-1.4-1.1-3-2.6-4.4-3.7-.2-.1-.4-.1-.5.1-.8 1.6-1.5 3.8-2.4 5.2-.7 1.3-1.4 1.2-2.2-.1-1-1.6-.7-3.1 0-4.5 1.7-3.5 5.3-10.6 6.5-13.1.1-.2-.1-.5-.3-.4-2.3 1.6-7.8 6.2-10.5 8.6zM42 59.1c-.7 1.2-3 8.7-2.9 9.2s.6.8 1.7 1.3c.6.2 1.1.6 1.7.7.3.1.7.2.9 0 .8-.7 1.5-3.2 1.3-4.8 0-.5-.5-.6-.7-.3-1.9 2.8-3.6 3.3-4 1.1-.3-1.5 2.5-6.8 2.5-6.9.3-.5-.2-.5-.5-.3zm10.1-9.3c0-.1-.1-.2 0 0-1.6 2-2.6 4.5-4.1 6.6-1.3 1.7-.8 3.3 0 5.5 1.5-4.5 2.8-8.2 4.1-12.1z" />
    <path fill="#c30" d="M41.1 47.1c-5.3 5.9-8.9 6-10.9 3.3 3-.7 6.5-2.6 8.6-5.2.1-.1 0-.3-.2-.3-2.3 1.2-11.2 5.2-12.9-1l.1-.1c5.5 2 10-1.7 14.8-3.8.9-.4 1.8-1.1 2.7-1.1.7 0 1.6.6 2.4 1-.4.9-.6 1.9-1.2 2.7-.3.4-.8.6-1.3.9-.2.1-.2.4 0 .5 1.1.7 4.4 2.3.6 5.4-2.5 2.6-3 2.8-5.8 4.9-.5.4-3.5 2.1-4.2 2 1.9-3 5.8-5.5 7.6-8.9-.1-.3-.3-.4-.3-.3zM35 39.9c1.3-1.3 2.6-2.5 4-3.8 2-1.9 2.2-2 .5-4.2-.4-.5-1.7-2-2.6-3-.2-.2 0-.6.2-.5 2 .4 4.9 1.9 6.5 2.8 2 1.2 2.2 2.4.6 4.3-2.5 2.9-5.5 4.3-8.9 4.9-.4.1-.6-.3-.3-.5z" />
    <path d="M54.8 26.6c-.2.4-1 .3-1.9-.3-.9-.6-1.5-1.2-1.4-1.6.2-.4.8 0 1.8.5.9.5 1.7 1 1.5 1.4zm17.1 40.1c.2.3-.6 1.7-1.6 2.3-.8.6-2.7 1-2.9.6-.2-.3 1.4-1 2.2-1.6.9-.6 2-1.7 2.3-1.3zM34.6 44.1c.1.3-1.2 1.1-2.2 1.4-1 .3-2.8.2-2.9-.1s1.6-.5 2.6-.7c1.1-.3 2.4-.9 2.5-.6z" fill="#fff" />
</g><g id="black-horse">
    <path fill="url(#a)" stroke="#63451a" stroke-width=".954" stroke-miterlimit="10" d="M77.6 15.4 50 5.8l-27.6 9.6-10.6 72.1v6.7h76.4v-6.7z" />
    <path fill="#63451a" fill-opacity=".75" d="M12.3 87.5h75.4v6.2H12.3z" />
    <path d="M41.2 67.4c5.1 2.9 10.3 2.9 15.3 0 5-3 8.7-7.5 10.8-13.5 1.2-3.5.5-5-2.7-5.8-2.9-.7-5.6-.1-8.6 1.2-1.9.8-3.8 2.2-5.8 2.9-1.6.7-2.5.1-3-.7-.5-.7-.4-2.5.1-3.5.8-1.9 2.4-4.1 3.5-6 .2-.2.1-.6-.2-.7-2.9-1.6-2.5-3.3.4-5.8 1.5-1.3 5.4-4.2 6.9-5.5 0 0-4.1 1.5-4.8 1.8-5.4 1.7-10.7 3.9-16.3 4.8-4.3.7-8.3-2.6-10.1-7-.1-.3.2-.6.4-.4 7 5.3 13.2 2.6 19.6.6 3.9-1.2 7.7-3 11.6-4.2 1.3-.4 2.9-.4 4.3-.1 1 .2 2.2.9 2.5 1.7.3.8.3 1.6-1.2 2.9-2.8 2.6-6.2 5.2-9.4 7.7-.2.1-.2.4 0 .5 5 3.2.2 5-1.4 7.5-.1.1 0 .3.2.2 2.4-.9 4.3-2 7-2.4 4.1-.7 6.5-.3 9.4.8s4.3 4.1 3.7 7.4c-2 10.7-12 23.4-24.8 22.9-3.5-.1-7.3-1.3-10.4-3.1-3.1-1.9-3.6-6.9-.5-8.5 3.9-2 8.1-1.8 12.4-.3 1.2.6 2.5 1.2 1.7 3-.6 1.6-1.2 2-3 1.6-2.3-.5-5-.7-7.4-.7-.4.1-.4.6-.2.7z" fill="#c30" />
    <path d="M36.6 33.9c-.4.2-3.5.5-3.8-.2-.4-.6-.2-.9.3-.9 1 .1 3.2.4 4 .3.4.1 0 .7-.5.8zm27.6 29.2c-.2.4-2.4 3.1-2.9 2.8-.7-.1-.6-.5-.4-.8.8-.6 2.6-2.2 3.2-2.9.3-.3.4.5.1.9z" fill="#fff" />
</g><g id="black-prosilver">
    <path fill="url(#a)" stroke="#63451a" stroke-width=".92" stroke-miterlimit="10" d="M74.4 17.5 50 8.7l-24.4 8.8L16.2 84v7.3h67.6V84z" />
    <path fill="#63451a" fill-opacity=".75" d="M16.7 84h66.7v6.8H16.7z" />
    <path fill="#c30" d="M63.7 74.4c0 .2-.2.3-.3.2-4.8-3.7-9.8-2.2-14.8-1.7-2.2.3-4.4.7-6.6 1-3.3.4-5.6-1.4-7.6-4.5-.2-.2.1-.5.3-.4 2.5 1.9 7.8 1.6 10.2 1.1.5-.1.9-.3 1-.5.4-.6.1-1.6 0-2.5 0-.2-.3-.3-.4-.1-2.1 2.7-4.8-2.7-5.2-3.6-.1-.3-.3-.7-.5-1.2-.3-.6.4-1.2.9-.6 1.1 1.3 2.5 2.6 3.3 3.1 2.2 1.2 2.2-1.8 2.2-1.8s.1-2.2.1-3.3c0-.2-.2-.3-.3-.3-3.3 1.2-6.3.6-8.7-2.7-.2-.2 0-.4.3-.4 1.3.3 2.3.6 3.4.6 1.1.1 2.2-.1 3.3-.5.5-.2 1.3-.5 1.7-.7.2-.1.3-.3.2-.4-.2-.7-.5-2.3-.6-2.8-.1-.4-.3-.5-.6-.6-.3 0-2-.5-2.6-1.5-.3-.5-.2-1.1.4-1.2 3.6-.6 12.2-2 13.3-1.9.4.1.9.5 1.2 1.1.3.4.3 1-.1 1.3-.3.3-.7.5-1 .5-2.2.4-5 .9-7.3 1.2-.3.1-.5.4-.3.8.5 1 1.3 2 1.7 2.4.2.2.3.3.6.2.5-.2 1.4-.4 2.1-.5 2.1-.4 4.1-.7 5.8 1l.9 1.2c.1.1 0 .4-.1.4-.6.2-5.8.9-8.8 1.7-.2 0-.3.2-.3.4v2c0 .2.2.3.3.2.9-.5 3.7-1.5 5.1-1.4 1.6.1 2.2.6 2.4 1.4.2 1.5-2.3 6.2-6.6 7.8-.1 0 0 .1 0 .1.7 0 1.7-.1 2.2-.1 2.4 0 4.8-.1 7.1.1 1.9.1 3 2.3 2.7 5.4zm-9.1-11.8c0-.1-.1-.1-.2-.1-.9.1-3.5 1-4 1.3l-.2.2c-.1.5-.4 3.9.4 4.3.1.1.2 0 .3-.1 1.1-1.3 3.7-5 3.7-5.6z" />
    <path fill="#c30" d="M76.2 51.7c0 .3-.2.4-.4.4-.5.1-5.7.4-7.8.2-1.5-.2-3.1-.5-4.2-1.4C58.7 47 50.1 36 49.9 35.6c-.2-.4-.6-.4-.8-.1l-.9 1.2C43 44.2 38 51.9 31.3 57.9c-1.9 1.7-3.9 2.9-5.9 2.9C30.1 57.2 45.3 37 47.3 31c.3-.4.1-1.5-.3-1.9-.9-1.3-3.7-4-3.8-4.9 2.4.7 5.3 2.1 7.4 3.5 1.2.8 1.3 1.9 1 3.5-.1.3-.3 1.1-.5 1.5-.1.2-.1.4.1.6.3.3.6.6.7.8 4.2 5.2 8.5 10.3 14 13.6 1.9 1.2 8.8 2.9 10 3.5.2-.1.4.2.3.5z" />
    <path d="M49.4 27.9c-.2.4-1 .1-1.6-.3s-1.4-1.2-1.2-1.5c.2-.4.5-.1 1.1.2.6.5 1.9 1.3 1.7 1.6zm22.3 22.9c-.1.4-2.7.1-3.3-.1s-2.2-1.2-2.1-1.7c.1-.4 1.2.2 1.9.4.5.2 3.5.9 3.5 1.4zM43.2 71.2c0 .4-2.9.6-3.5.6-.7-.1-2.5-.4-2.5-.8s1.2 0 2.5.1c1 0 3.5-.4 3.5.1z" fill="#fff" />
</g><g id="black-proknight">
    <path fill="url(#a)" stroke="#63451a" stroke-width=".924" stroke-miterlimit="10" d="M73.5 19.4 50 11l-23.5 8.4-9 63V89h65v-6.6z" />
    <path fill="#63451a" fill-opacity=".75" d="M18 82.4h64v6H18z" />
    <path fill="#c30" d="M51.5 28.1c.4.5.3.9.3 1.3-1.1 2.5.7 3.6 1.9 4.8 2.5 2.5 5.2 4.7 8 6.8 2.8 2.3 10.5 5.4 10.6 5.5.4.3.4.6-.1.7-.2.1-5.8.5-8.2-.3-2.3-.8-4.5-2.6-6.3-4.5-2.5-2.5-4.7-5.2-7-7.9-.7-.8-1.2-.7-1.7.2-1.8 2.8-3.5 5.5-5.3 8.3-3.3 5.2-6.5 10.3-9.9 15.4-1.1 1.6-3.5 5.5-5.3 4.6-.1 0-.2-.1-.2-.2-1-1.7-.8-4.7-.7-6.6V56c.1-.5.7-.6.8-.2.3.8.7 1.8 1 2.4.2.3.6.3.8.1 1.9-2.4 3.5-4.6 5.1-6.8 4.1-6.3 8.3-12.8 11.7-19.6 1-2 1.1-3.6-.3-5.3-.3-.3-.6-.6-.8-1-.3-.4.1-.8.5-.8 2 .6 3.7 1.7 5.1 3.3z" />
    <path fill="#c30" d="M50.5 66.1c1.9 0 3.4-.2 4.8.1 1.7.3 1.6 1.2 1.5 1.6-.3.9-1.4 1.4-1.7 1.6-2.4 1.3-3.9 1.9-6.3 3-1.1.4-3.6-.1-3.6-.1 2-.5 3.5-1.7 4.6-2.5.1-.1.1-.3-.1-.3-1.5-.2-2.3-.9-2.5-1.8-.3-1 .3-3 .5-4.4-1-.3-2.2-.6-3.3-1.4-1.5-1-1.7-2.5-.4-3.7 1.8-1.8 3.7-3.1 6.1-3.8.4-.1.8-1.3.9-1.8-8.1 3.1-10.7 3-12.1-.3 1.4 0 2.7.3 4-.1 2.1-.5 4.1-1.3 6.3-1.9 1.3-.4 2.6-.8 3.9-1 1.4-.2 2.3.9 1.9 2.4-.3.9-.8 1.9-1.4 3 .6.3 1.5.8 1.7 2 .2.7.1 1.9-.3 2.7-.9 1.9-2.2 3.5-3.3 5.2-.3.2-.6.7-1.2 1.5zm-4.7-6.2c.9.6 1.6.9 2.3.9s1.7-2.6 1.9-3.6c-1.4.8-2.6 1.6-4.2 2.7zm0-13.7c-.3-.3-.2-.8.3-.9 2.1-.5 4.1-.5 5.6-.8 1.2-.2 4.4 0 4.1 1-.1.4-.3.8-.8 1-2.5.8-4.6 1.4-7.2.8-.5-.1-1.5-.6-2-1.1z" />
    <path d="M48.8 28.7c.1.5-.5 1.9-.8 2s.3-1.1.2-1.8c-.1-.4-.3-1.1.1-1.3.3 0 .5.5.5 1.1zm-5.9 24.7c-.5.1-1.5.1-1.7-.3-.2-.3 1.1 0 1.6-.3.3-.2 1.1-.5 1.3-.2.2.4-.6.7-1.2.8z" fill="#fff" />
</g><g id="black-prolance">
    <path fill="url(#a)" stroke="#63451a" stroke-width=".924" stroke-miterlimit="10" d="M73.5 19.4 50 11l-23.5 8.4-9 63V89h65v-6.6z" />
    <path fill="#63451a" fill-opacity=".75" d="M18 82.4h64v6H18z" />
    <path d="M48.1 36.3c-2-.3-2.4-.8-1.5-2.7.7-1.4 1.6-2.7 2.5-3.9.7-.9 1-1.4 0-2.3s-2.4-2.7-3-3.6c-.1-.1.1-.3.2-.2 2 1.2 4.2 2.3 6 3.6.9.6.8 1.8-.1 2.7-.4.5-1.1 1.3-1.7 1.9-.1.1 0 .3.2.3 1 0 2.3.1 3.1.3 1.3.4 1.4 1.2.3 2.2-1.4 1.3-2.9 2.4-4.5 3.8 4.3-.5 3.9 4.1 4 4.3 0 .2.2.3.3.3 5.3-1.4 11.7-1.7 12.3 1.4 0 .2.1.3.1.4.1.9-.7 1.7-1.6 1.5-.1 0-.1 0-.2-.1-2.8-1.1-8.1-1.2-10.5-.7-.3.1-.4.3-.5.5-.1 1.1-.3 5.7-.2 6.7 0 .1.1.2.2.3.3 0 .6.1.8.2 2.1.9 2.6 2 1.3 3.9-1.9 2.8-3.9 5.5-5.9 8.2-.3.4-.6.8-1 1.3-.2.2 0 .4.3.3 1.7-.3 3.2-.8 4.7-1 4.9-.4 3.8 2 3 2.9-.1.1-3.6 3.6-9.5 4.4-.3 0-2.5.2-3.1 0-.3-.1-.3-.4 0-.5 1.6-.4 3-1 3.8-1.8.1-.1 0-.3-.1-.3-.3 0-.6-.1-.8-.1-1.8-.2-2.7-1.3-2.2-3.1.1-.3.8-1.7 1.1-2.3.1-.2 0-.4-.2-.5s-.4-.3-.9-.6c-1.3-1-2.5-2-3.7-3.1s-1-2.7.4-3.5c1.7-1 8.3-3.7 8.9-4 .2-.1.3-.3.3-.5.1-1.2-.5-4.6-.7-5.6-.1-.3-.3-.3-.4-.3-5 2.7-10.1 5.7-13.7 9.8-.2.3-.4.3-.8.5-.9.3-1.4-.6-1.7-1.6-.1-.3.1-1 .2-1.2 1.4-2.5 2.7-4.7 4.4-7 3.5-3.7 6.9-7.4 10.1-11.2zm-9.4 15c-.2.3.2.6.4.3 2.6-2.5 9.7-6.4 11-7.2.2-.1.3-.2.3-.3.1-.8.2-3.1-.4-4.6-.1-.2-.2-.3-.3-.7-4.5 3.2-8.1 8-11 12.5zM50 56.8c.1-.3-.2-.5-.3-.3-1.3.6-2.7 1.2-3.9 1.9-1.9 1.1-1.9 1.4.2 2.4.6.3 1.8.5 2 .2.7-1.2 1.3-2.8 2-4.2z" fill="#c30" />
    <ellipse transform="rotate(-54.417 48.696 32.434)" class="st3" cx="48.7" cy="32.4" rx="1" ry=".5" />
    <ellipse transform="rotate(-54.417 35.932 53.58)" class="st3" cx="35.9" cy="53.6" rx="1.8" ry=".5" />
</g><g id="black-tokin">
    <path fill="url(#a)" stroke="#63451a" stroke-width=".944" stroke-miterlimit="10" d="M72.6 21.1 50 12.9l-22.6 8.2-8.7 61v5h62.6v-5z" />
    <path opacity=".75" fill="#63451a" d="M19.2 82.1h61.6v4.5H19.2z" />
    <path d="M41.2 29.4c2.2.8 4.6 1.4 6.7 2.3 2.1 1 2.5 2.6 2 5-.4 2.2-.7 4.5-.7 6.8 0 1.7 1.3 2.5 2.7 1.7 2-1 3.8-2.2 6.3-1.2 1.3.5 1.5 1.1.3 1.9-1.3.9-2.6 1.6-3.8 2.6-4.4 3.2-7.7 7.3-9.2 12.6-.9 3 .9 5.5 4.1 5.5 1.7 0 3.5-.3 5.2-.1 1.2.1 2.3.5 3.2 1.4.4.4.9 1.2.9 1.9-.1.3-.3.9-1.5.8-7.4-.5-18.3-.3-14.8-11.3 1.4-4.1 5.5-10.4 5.8-10.8.2-.2.2-.5-.1-.7s-.8-.4-1-.6c-2.6-1.9-1.5-4.7-1.7-7.3-.1-1.2.3-2.6-.1-3.7-.3-1-1-2-1.7-2.9-.9-1.2-2-2.2-3.1-3.3-.2-.3.1-.8.5-.6z" fill="#c30" />
    <path d="M46.7 32.6c-.3 0-3-.4-3.1-1-.2-.5 0-.7.4-.6.9.3 2.6.8 3.2 1.1.5 0 0 .4-.5.5zm-4 31.9c-.1-.3-.3-3.1.3-3.2.5-.3.7-.2.7.3 0 1-.2 2.6-.3 3.4-.2.2-.6-.2-.7-.5z" fill="#fff" />
</g><g id="white-king">
    <path fill="url(#a)" stroke="#63451a" stroke-width="1.01" stroke-miterlimit="10" d="M11.8 5.8V11l10.6 73.5L50 94.2l27.6-9.7L88.2 11V5.8z" />
    <path fill="#63451a" fill-opacity=".75" d="M77.1 78.9 50 88.6l-27.1-9.7L12.3 6.3V11l10.6 73.1L50 93.7l27.1-9.6L87.7 11V6.3z" />
    <path d="M48.6 58.1c1.8-.2 1.8-.7.3-2.1-2.4-2.3-3.5-2.7-3-7.3.1-.6-.3-1.1-1.2-.8-1.9.6-5.7.9-7.6 1.1-2 .2-4.1-2.6-5-5.6-.5-1.7 2-1.8 3-1.8 2.5.1 7.9-.3 9.9-.4.4 0 .8-.8.8-1.3v-7.7c0-.6-.3-1.6-.8-1.6-3.3-.1-11.2.3-15.5 0-2.7-.2-7.7-2.2-8.5-6.2-.2-.9.1-2.5.3-3.6.1-.4.4-.7.9-.7.4.1 1.1.2 1.4.3 2.9 1 5.8 2.5 8.7 3 8.8 1.4 17.5-.2 26.2-3 3.6-1.2 7.4-2.2 11-3.1 3.4-.9 8.4 4 9.5 9.3.1.4-.3.7-.6.6-5.2-2.4-10.4-2.5-15.3-1.1-3.2.9-6.2 2.3-9.4 3-1.7.5-1.7.8-1.6 2.8.1 2.1-.1 5.1-.2 7.3 0 .5.4.9.8.8 5.6-.5 11.7-.7 13.5 7 .1.4-.3.7-.5.5-6.1-3.2-11.5-1.5-13.5-1-.3.1-.5.4-.5.7-.1 3.2 1.2 7.7 1.8 9 .1.3.4.5.5.4 1-.3 3.3-.9 4.5-1 3.5-.3 6 2.3 8 6.4.2.4.3 1 .3 1.6 0 .5-.3 1.1-.7 1.2-.3.1-.6.2-.8.1-5.8-3.2-11.6-1.6-17.4-.2-4.1 1-8.1 2.3-12.1 3.3-2.8.8-5.8-1.2-6.5-4.4-.3-1-.2-2.4.1-3.4.1-.5 1.2-.5 1.7-.5 5.7-.3 17.4-1.6 17.5-1.6z" />
    <path d="M31.5 61.2c.3-.5 1.2-.6 4.9-.8s7-1.1 6.9-.6c-.1.5-12.4 2.5-11.8 1.4zm1.9-17.3c0-.3-.6-1.4 1.5-1.6.9-.1 2.5 1 2.5 1.2.1.8-4.1 1-4 .4zM30 24.2c.9.4-.9.9-4.1.5-.9-.1-3.2-2.7-3-3 .3-.6 5.5 1.7 7.1 2.5z" fill="#fff" />
</g><g id="white-tama">
    <path fill="url(#a)" stroke="#63451a" stroke-width="1.01" stroke-miterlimit="10" d="M11.8 5.8V11l10.6 73.5L50 94.2l27.6-9.7L88.2 11V5.8z" />
    <path fill="#63451a" fill-opacity=".75" d="M77.1 78.9 50 88.6l-27.1-9.7L12.3 6.3V11l10.6 73.1L50 93.7l27.1-9.6L87.7 11V6.3z" />
    <path d="M51.8 60c-2.5-1.7-3.5-4.6-3.6-7.9-.1-2.1-.9-2.4-2.5-2.1-2.9.5-6 .7-9 .7-4 0-6-3.5-5.7-4.8.2-.9 4.3-1.7 5.8-1.8 3-.3 6.1-.3 9-.6 1.4-.1 2.1-.9 1.9-3-.3-2.9-.1-5.9-.3-8.8 0-.6-1-1.5-1.6-1.4-1.3 0-4.7.6-5.9.5-.5 0-1.7 0-1.4 4.8.2 1.2.2 2.4.4 3.7 0 .2-.1.3-.2.2-.9-.8-1.8-1.6-2.5-2.6-2.2-2.7-4.2-5.5-6.2-8.3-.5-.7-1.2-1.7-1-2.7.2-.9 1.7-1.5 2.5-1.5 4.7-.2 9.5.1 14.2-.4 8.4-.7 16.4-3.7 24.3-7.4 2.2-1 4.5-1.5 6.7-1.9 2.7-.5 5 2.5 3.7 5.3-2.4 5.9-6.4 9.9-11.2 12.8-.1.1-.3-.1-.2-.3 1.3-2.9 2.5-5.8 3.7-8.7.2-.6-.1-1-.6-.9-5.6 1.8-11 3.4-16.6 5.3-.6.2-1.5 1.2-1.5 1.9v11.1c0 .1.1.2.2.2 2.4-.3 4.5-.7 6.5-.7 3.2 0 6.1 1.4 8.3 4.4.5.7 2.3 2.9.9 3.4-.8.3-1.8.1-2.4-.2-3.9-1.4-7.8-1.6-11.7-.4-.6.2-1.3 1.4-1.3 2.1-.1 1.6.2 3.2.4 4.7.6 3.6 2.2 5 5.3 4.8 4-.3 7.7.7 10.5 4.7.3.5 1.3 2.2.6 2.7-.5.3-1.2-.1-1.6-.2-8.6-2.2-16.8-.1-25.1 2.1-3.1.8-6.4 1.2-9.5 2.1-2.5.7-4.4-.5-6.2-2.3-1.6-1.8-1.3-3.5.9-4.1 2.3-.7 4.8-.7 7.1-1.1 4.9-.7 9.8-1.6 14.7-2.4.3-.1.6-.8.2-1z" />
    <path d="M32.5 41c-4.1-2.9-8.2-5.6-12.2-8.8-1.7-1.3-1.5-4.7-.1-6.1 1.8-1.9 3.6-1.6 5.1.7 2.4 3.8 5.1 7.4 7.2 11.5.4.9 1 3.5 0 2.7z" />
    <path d="M63.1 21.4c.1-.5 4.3-2.7 8.3-4 3.8-1.2 3.6-1.1 3.9-.6.5 1.1-9.2 4.4-12.2 4.6zm-42.3 7.5c0-.3.2-1.6 1.3-2 1-.3 2 .4 2 .7-.1.7-3.4 1.9-3.3 1.3zm9.5-2.1c0-.2.1-1.1.8-1.4.6-.2 1.2.3 1.2.5-.1.4-2 1.3-2 .9zM30 65.4c0-.3 1.5-.5 2.4-.7 1-.3 2.7.9 2.7 1.1.1.8-5.2.2-5.1-.4z" fill="#fff" />
</g><g id="white-rook">
    <path fill="url(#a)" stroke="#63451a" stroke-width="1.01" stroke-miterlimit="10" d="M11.5 5.5v5.2L22 84.2l27.5 9.7L77 84.2l10.5-73.5V5.5z" />
    <path fill="#63451a" fill-opacity=".75" d="m76.5 78.7-27 9.7-27-9.7L12 6.5v4.7l10.5 72.7 27 9.6 27-9.6L87 11.2V6.5z" />
    <path d="M56.9 31.5c-.2.3-.6.3-.8.1-.7-.6-1.3-1.1-1.9-1.7-1.1-1-2-1.3-2.1 1-.1 3.3-.3 6.6-.4 9.9 3.5-.4 5.9-2.7 6.6-6.4 1.7-8.8 6-14.5 12.9-16.9 1.9-.7 4-.8 6-.6 1 .1 2.1 1 3.1 2.1-4 .5-7.9 1.2-11.3 3.9-3.3 2.6-5.9 6-7.3 10.7-.2.6.3 1 .8.5 2-1.8 3.9-3.6 5.8-5.5 2-1.9 3.7-1.7 5.3.7 2.2 3.2 3.4 6.9 3.4 11.2-1.6-2.2-3.1-4.4-4.7-6.6-.5-.6-1.5-1.3-1.8-1-1 .8-2.5 1-2.4 3.4.2 4.8.3 9.7 3.5 13.2.5.5.8 1.2.8 2.4-2.1-1.1-4.3-2-6.1-3.7-.9-.9-1.1-3.4-1.4-5.2-.2-1.8-.1-3.6-.1-5.4-4.2 1.4-4.7 7-3 11.8.8 2 1.7 3.8 3.3 5.8.2.3-.1.6-.4.5-2.1-1-4.5-1.8-6.2-3.4-2.6-2.4-1.2-6.2-1.5-9.5-2.1.4-4.1 1.1-4.9 1.6-1.8 1-.6 7.2.1 9.7.3.9 2.5 4.6 2.9 5.6-2.1 0-5.9-1.8-6.5-2.8-.7-1.1-.6-3.6-.5-5.9 0-.4 0-.8.1-1.1.1-3.5.1-3.5-2.4-2.6-1.9.7-3.3-.8-3.4-3.6-.1-2.5-.1-5.2 0-7.7.1-4.5-2.2-9.4-5.5-10.3-3.1-1.4-6.5-1.7-9.1-1.3-.9.1-1.7.8-1.3 2.7.7 3.4.9 6.4 1.4 9.9.1.8-.2 1.2-.2 1.2-2-4.4-4.5-8.6-7.5-12.3-.8-1.4-.3-3.4 1.2-4.3 6.2-3.8 17-.9 21.8 5.4 2.7 3.7 3 7.9 2.9 12.6 0 1.1-1 3.5.9 3.5 1.8 0 1.3-2.2 1.3-3.7.1-4.3 0-8.7.3-13 .1-1.3.8-3.4 1.7-3.8.8-.3 2.3.9 3 2 1.4 1.9 2.5 4.1 3.8 6.2.1.1 0 .4-.2.7z" />
    <path d="M61.2 68c-6.3-3.7-12.3-.9-18.3-.1-2.3.3-4.3.8-5.5-2.9-1.3 1.7-1.9 2.9-.5 4.6.8 1 1.5 2.4 2 4-2.2-1.2-4.4-2.4-6.6-3.7-1.9-1.1-1.9-2.7-.2-4.3 1.4-1.3 2.9-2.6 4.4-3.9-.8-1.3-1.7-2.4-2.1-3.8-.1-.4-.1-.8 0-1.3.2-.9 1.3-1.4 2.2-.9.2.1.4.3.6.5.8 1.2 1.3 2.7 2.3 4.7 1.4-3 1.5-5.5.7-8-1.4-4-4.6-7.3-8.1-6.9-.5.1-1.1 1.3-1.1 2.1 0 2 .4 5 .7 7.2 0 .3-.7-.1-.9-.4-1.4-2.7-2.9-4.4-5.5-7.3-1.5-1.9-1.4-3.6.5-4.6 6-3.4 15.3 1.2 17.3 9.1.7 2.6.3 5.8 0 8.7-.2 2.1 0 2.6 1.7 2.3 2.9-.7 5.8-1.1 8.7-1.4 3.3-.5 6.8 2.2 7.7 6.3z" />
    <path d="M39.9 42.8c.3.3-.1.8-.5.7-1.9-.6-4.3-2.4-4.3-3.4.1-1.5 1.4-4.3 2.1-5 .1-.1.1-.4 0-.5-1.1-.7-2.1-1.7-2.7-2.8-.5-.8-.7-2.5-.2-3.3.8-1.3 1.9-1 2.7.2.7.8 1.2 1.8 1.9 2.6 2.4 3 2.3 2.9.7 6.7-.4.9-.8 2.1-.6 3.2.2.5.5 1.2.9 1.6z" />
    <path d="M21.5 22.7c.5-.8 2.1-1.2 2.6-1 .6.3 1.2.8.9.8-.6.1-2.3.4-3.3 1.5-.4.3-.5-.6-.2-1.3zm3.8 21.6c.6-.7 1.7-1 2.3-.7.5.4.6.8.2.8-.6 0-1.1.5-2.4 1.2-.5.3-.6-.8-.1-1.3zm43.4-15.1c.6-.7 1.7-1 2.3-.7.5.4.6.8.2.8-.6 0-1.1.5-2.4 1.2-.5.3-.6-.8-.1-1.3z" fill="#fff" />
</g><g id="white-bishop">
    <path id="polygon52" d="M11.8 5.8V11l10.6 73.5L50 94.2l27.6-9.7L88.2 11V5.8H11.8z" fill="url(#a)" stroke="#63451a" stroke-width="1.01" stroke-miterlimit="10" />
    <path id="polygon54" d="M77.1 84.1 87.7 11V6.3L77.1 78.9 50 88.6l-27.1-9.7L12.3 6.3V11l10.6 73.1L50 93.7l27.1-9.6z" fill="#63451a" fill-opacity=".75" />
    <g id="g60">
        <path id="path56" d="M44 22.8c-2.1-1.8-3.3-3-5.1-3.9-1.4-.8-2.3 1.1-2.3 3v4.7c0 .9.2.8 4.4.5 1.7-.1 3.6-.4 4.2-.5.1 0 .3-.2.3-.4 0-.8.1-3.3.3-5.7.3-4.3 2.4-6.7 5.9-8.5.1 0 .2 0 .1.1-.2 2.5-.4 4.5-.6 6.4-.3 2.7-.5 5.8-.5 6.8 0 .2.1.4.3.4h5.9c.2 0 .4-.2.5-.5.2-.8 1.1-5.6 3.1-6.3.9-.3 1.8.1 2.1.8.5 1 .5 1.9.4 2.9-.4 3.9-1.4 7.7-1.4 11.4.1 5 1 10.1 1.6 15.1 0 .2.1.4.1.7.1.5-.4 1-.8.7-.5-.4-3.9-4.2-4.4-4.2-.3 0 2.1 3.2 2.2 3.7.2.8 0 1-.2 1.2-.5.4-1.4.4-2 .2-5.4-.8-10.6.8-15.9 1.9-2.5.5-5.1.8-7.6.8-2.4 0-4-2.4-3.9-5.5.1-4.8.2-9.6.3-14.5.1-5.3.1-10.6 0-15.9 0-2.3.5-4.2 2.2-4.7 1.4-.5 3.5-.4 4.7.4 2 1.3 4.5 3.9 6.6 7.5.6.9 0 1.9-.5 1.4zm-7.3 17.4c-.1-.1-.2-.1-.2.1 0 2.6-.2 4.2.1 5.8.1.8 1.2 2 1.7 2 2.5-.3 4.9-1 7.4-1.6.2 0 .3-.2.4-.3l.1-.2c.1-.2 0-.5-.1-.7-.3-.9-.9-2.8-1.1-3.4 0-.1-.1-.2-.3-.2-2.4.4-6.1 1.8-8-1.5zm.2-3.3c0 .3.1.5.3.6.1 0 .2.1.3.1 1.2-.2 5.6-1.1 6.8-1.3.2 0 .3-.2.3-.4l.2-4.1c0-.2-.1-.4-.3-.4-1.3.2-5.7.9-7.5.9-.1 0-.1.1-.1.1v4.5zm16.5-6.1c-.6 0-1.9 0-2.4.1-.1 0-.3.1-.3.3-.1.5-.3 3.6-.3 4 0 .2.1.3.2.4 1 .1 5.7.7 6.1.8.2.1.3-.2.4-.4.1-.5.2-4.2.2-4.7 0-.2-.1-.3-.2-.3-.5-.1-3.7-.2-3.7-.2zM56.8 46c.1 0 .2-.1.2-.2 0-1.5-.4-3.6-.5-4.4 0-.2-.1-.3-.3-.3-.6 0-2.4-.2-3.6-.3-1.1-.1-2-.1-2.3 0-.1 0-.2.1-.2.2v1.8c.1 1 .1 1.7.3 2.5.1.4 1.3.4 2.3.4 1.3.1 2.6.1 4.1.3z" />
        <path id="path58" d="M78.3 49.3c.3.3.3 1-.1 1.1-8.4 1.5-19.5 10.7-23.7 17.2-1.1 2.1-1.8 2.1-.2 4.2.7.9 1.1 2.1 1.4 3.4.1.5-.2.9-.6.8-3.3-1.1-6.7-1.7-8.5-6-.2-.5-.9-.8-1.4-.8-3.2-.2-6.4.1-9.5-.4-1.5-.2-3.5-1-4.2-2.9-.4-.9-.1-2.4.4-2.9.7-.7 1.9-1 2.9-1.1 2.8-.1 5.2-1.1 7.3-3.6 2.8-3.4 6-6.2 10.3-6.1h.2c.4.1.6.7.3 1.1-2.1 2.4-4.1 4.5-6.1 6.8-.7.8-1.3 1.7-1.9 2.6-.2.3-.1.8.2 1 1 .6 2 1.3 3 1.4s2.2-.6 3.1-1.3c4.9-4.9 14.1-14.1 22.4-15.5 1.5-.2 3.1-.4 4.7 1z" />
    </g>
    <path id="path64" fill="#fff" d="M33.1 63.5c.1-.2 2.4-.6 3.1-.5.6 0 1.6.6 1.6 1 0 .6-3.4.4-4 .5-.5-.2-.9-.5-.7-1z" />
    <path id="path66" fill="#fff" d="M32.5 16.5c.5-1.5 3.1-2 4-1.9.8.2 1.1.5 1.1.9 0 .5-1.6.5-2.7.9-.9.4-1.4 1.1-1.7 1.1-.7.2-1.1 0-.7-1z" />
</g><g id="white-gold">
    <path fill="url(#a)" stroke="#63451a" stroke-miterlimit="10" d="M16.1 12.9v5.7l9.4 66.2L50 93.6l24.5-8.8 9.4-66.2v-5.7z" />
    <path fill="#63451a" fill-opacity=".75" d="m74 79.1-24 8.8-24-8.8-9.4-65.8v5.2l9.4 66 24 8.6 24-8.7 9.4-65.9v-5.2z" />
    <path d="M44.5 52.8c-.4 0-1-.3-1.3-.6-.1-.1-.1-.2-.1-.2-.7-1.8 0-2.2 1.3-2.3 2.2-.2 5.3-.5 7.5-.6-.9-3.6-.1-3.8-4.6-3.2-1.9.2-3.9.2-5.8.2-.7 0-1.5-.1-1.9-.6-.6-.7-1.5-1.9-1.4-2.8.2-1.9 6.2.3 7.3 0-3.8-1.9-3.4-5.4-2-6.6 1.6-1.3 3.4-2.2 5.1-3.4.4-.3 1.2-.8.6-1.7h-.8c-3.5.1-7 .3-10.5.3-2.4 0-4.5-.9-5.6-3.7-.3-.6-.4-1.7-.1-2.1.3-.4 1.2-.6 1.7-.3 4.2 2.7 8.7 2.1 13.1 1.8 5-.5 10-1.8 15-2.9 3.7-.7 7.3 1.4 8.1 5.1-2-.3-4.1-1-6.2-.8-3 .3-5.9 1.1-8.8 1.9-.3.1-.6.5-.8.9s-.4.8-.4 1.2c-.1 1.4.1 2.9.3 5 1.1-1.7 1.8-2.9 2.5-4.1 1.3-2 3.3-2.2 4.8-.6 1.8 2 2.9 4.3 3.3 8-1.1-1.2-2-2-2.8-2.9-2.4-2.4-2.6-2.5-5.3-.6-1 .6-2.5 2.3-2.6 2.8-.1.6.1 2 .1 2s7.8-3 9.7-.8c.7.8 1.1 1.8 1.7 2.8-3.5-.6-6.9-.6-10.4.6l-.9.3c-.2.1-.4.3-.3.6l.5 3.2s3.8-.3 5 1.2c.1.1.3.5.7 0 1.8-2 7.8-7.1 8.9-7.7 2-1.2 4.1-1.5 6.5-.6-8.2 5.8-18.8 15.1-21.6 23-.9 1.5-.1 2.6.6 3.8 1.1 1.9 1.2 2.6 1.5 3.5.2.6-.4 1.1-.8.7-1.8-1.4-3.8-2.7-5.5-4.2-.6-.6-1.1-2.1-.8-2.9.1-.5.4-1.2.4-1.4-.1-.1-.8-.8-1.2-1.3-6.3-6.5-13-12.1-21-14.8-.9-.3-3.9-2.1-2.3-2.3 11.3-4.1 16.9 5.9 18.4 7.3 1.8 1.8 3.4 3.6 5.2 5.3 3.3 3.1 2.2 3.1 5.3-.5 1.4-1.6 2.5-3.5 3.9-5.3.1-.1 0-.3-.1-.3-1.2-.1-11.6.7-13.1.6zm4.9-19.3s-2.5 3.2-2.8 4.3c-.3.8-.4 3.1-.3 4.8 1.1.2 2.6 0 3.6 0 .2 0 .4-.2.3-.5-.2-1.2-.5-6.8-.8-8.6z" />
    <path d="M53.6 61.8c.3.1.2 1.5-.2 2.3-.4.8-1.5 1.8-1.9 1.7-.7-.3.1-1.9.4-2.7.5-.9 1.3-1.4 1.7-1.3zm9-37c.1.3-1.3.8-2.1 1s-3 .5-3.1.3c-.1-.4.9-.7 1.6-1 .8-.2 3.5-.6 3.6-.3zM31.8 46.3c0 .4-.8.7-1.5.6-.8-.1-3.4-.4-3.4-.8s2.4-.5 3.2-.5c.8.1 1.7.4 1.7.7z" fill="#fff" />
</g><g id="white-silver">
    <path fill="url(#a)" stroke="#63451a" stroke-miterlimit="10" d="M16.1 12.9v5.7l9.4 66.2L50 93.6l24.5-8.8 9.4-66.2v-5.7z" />
    <path fill="#63451a" fill-opacity=".75" d="m74 79.1-24 8.8-24-8.8-9.4-65.8v5.2l9.4 66 24 8.6 24-8.7 9.4-65.9v-5.2z" />
    <path d="M47.5 62.5c1.1-.2 2.1-.5 3-.5 1 0 3.6.3 4.3 1.9.7 2.3 3.4 4.3 5.9 3.9.1 0 .2-.2.1-.3-.2-.3-.3-.6-.5-.7-1.8-1.7-1.7-3.4-.3-5.6 4.1-6.3 8.7-12 14.2-16.6 1.5-1.2 3-2.4 4.4-3.5.1-.1.1-.3-.1-.3-1-.1-1.9.1-2.8.4-3.8 1.1-6.1 3.1-8.9 6.2-.4.6-1.1 1.6-1.4 1.6-.6 0-3-.6-3.4-1.6-1.1-1.8-.9-2.7.8-3.9.8-.6 2.2-1.1 4.3-1.7 2.3-.5 3.2-.6 5.5-.5.1 0 .2-.2.1-.3-4.1-3.5-7.9-2.2-11.7-.1-.1 0-.2 0-.2-.1-.5-2.3-.2-2.7.8-4.1 2.5-3.1 4.1.3 6 .9.1 0 .2-.1.2-.2-.4-2.4-2.6-5.3-3.9-5.3-1.2 0-2.8 2.9-3.6 5.3.2-1.2.3-6.7.9-7.5 2.9-3.8 6.7-4 10.7-2.7.1 0 .2-.1.2-.2-1.7-3.4-6.2-5.4-9.2-3.3-1.7 1-3.2 2.3-4.9 3.4-3.6 2.7-7.3 5.4-11.1 8.3-.1.1-.2 0-.2-.1-.1-.7-.2-1.5-.2-2.1-.2-2.3-.3-4.7-.5-7-.2-2.2-1.8-3.5-3.4-2.9-1.6.6-5.3 9.8-6.7 13 0 .1-.2.1-.2 0-2.7-2.6-5.1-4.9-7.4-7.2-1-1-1.7-.8-2.1.5-.8 2.8.3 5.9 2.7 7.3 2.8 1.6 5.5 3 8.5 4.8.1.1.1.2 0 .3-.6.6-.8.9-1.4 1.2-2.1 1.6-4.3 3-6.4 4.6-2.5 1.9-1.6 5.6 1 6.3.6.1 1.8.5 1.8.5 0 .4-1.8 4.4-2 7.4-.7 6.9-.1 6.9 5.4 5.4.6-.2 2.4-.6 3.4-.9 3.2-.7 9-1.2 9.3-1.2.4 0 .6-.5.3-.7-.3-.8-.8-1.4-1.3-2.1m-.7-23.3c0-.7.5-1.9 1-2.2 2.6-1.6 5.3-2.9 8-4.4.1 0 .2 0 .2.1.2.9.4 2.2.2 2.9v.1c-.1.1-.7.6-1.8 1.4-.9.6-1.9 1.1-2.8 1.9-2.4 2.2-2 3-1 6 0 .1 0 .2-.1.2-.6 0-1.5.2-1.8.6-.4.6-.5 1.2-.4 2 .1 1 1 .9 1.6.9 1.1 0 3.5-.7 5.2-1.6.6-.4 1.8-.7 2.1-.7.2 0 1.2.9 2 1.9.1.1 0 .2-.1.3-2.3.8-4.4 1.7-6.7 2.4-.4.1-1.2.6-1.6.8-.9.6-1.1 1.8-.9 2.5.3.8 1.6 1 2.2.9 1.7-.4 3.2-1.4 4.9-1.9 1.7-.6 3.1-1 5.1-1.1.1 0 .2.2.1.3-1.1 1.8-2.4 3.6-3.5 5.3-.7 1.4-1.7 2.5-2.7 3.8-.1.1-.1.1-.2 0-1-.9-2.1-1.9-3.1-2.9-2.5-2.3-2.5-2.4-5-.1-.1.1-.2 0-.3-.1-.2-1.2-.5-2.3-.6-3.4V39.2zm9.6 3.6c-.3.9-2.9 1.9-3.5 1.9-.1 0-.1-.1-.1-.2v-2.1c.1-1.1 2.3-5.1 3.6-5.7-.1 1.3.2 5.5 0 6.1zm-9.5 19.4c-4.3-.6-13 1.8-13 1.6.1-2.4.6-3.8.8-3.9.2-.2 9-1.6 9.3-1.2.9.5 1.3 2 2.9 3.5m-11.5-5.9c0-.5.6-3.8 1.2-3.9 1.8-.5 5-.8 6.9-.9.2 1.4.3 3.4.1 3.6-.2.2-8.2 1.7-8.2 1.2zm6.3-25.5c.5-.5 1.2-.1 1.4.6 0 .6.1 1 .1 1.4.1 5.1.2 8.3.4 13.2 0 1.5-.4 2.2-1.7 2.4-1.2.1-2.5.2-3.7.3-3.2.3-3.6.2-4.8 3.7-.1.2-.5 1.4-.6 1.6-.1.1-.5-.3-.6-.5 0 0-1-1.4.9-3.3 2.5-2.4 5-4.6 7.7-6.7 1.7-1.4 1.8-2.4.1-3.6-.7-.6-1.5-1.1-2.3-1.7-.6-.4-1.4-.7-1.8-.9-.2-.1-.3-.3-.2-.5.4-.9 4-4.8 5.1-6z" />
    <path d="M61.9 25.4c.3-.3 2.8-1.7 3.2-1.4.6.3.5.6.1.7-.8.3-2.8 1-3.4 1.4-.3.2-.1-.5.1-.7zm-33.6 5.4c.5.2 3.2 2.5 3.1 3.1 0 .8-.4.9-.7.4-.7-.8-2.4-2.8-3.2-3.3-.4-.3.5-.4.8-.2z" fill="#fff" />
</g><g id="white-knight">
    <path fill="url(#a)" stroke="#63451a" stroke-miterlimit="10" d="M17.5 14.3V20l9 63L50 91.4 73.5 83l9-63v-5.7z" />
    <path fill="#63451a" fill-opacity=".75" d="m73 77.5-23 8.2-23-8.2-9-62.7v5.1l9 62.7 23 8.2 23-8.2 9-62.7v-5.1z" />
    <path d="M70.8 51.4c.1.2 0 .5-.3.5-.8-.1-1.9-.4-2.5-.5-2.5-1.1-5.9.6-9 2.3-.5.3-1.4 1.1-1.4 1.7-.1 3.5-.3 6.1 1.7 9.2 1.2 1.6 2.6 2.7 2.7 3.5.1.3-.1.5-.3.5-.6.2-2.2.3-3.4 0-1.6-.4-2.9-1.1-3.6-2.1-.9-1.5-.8-3.8-.5-6.6.1-1.1.1-2.3.2-3.5 0-.2-.2-.4-.3-.4-1.2.4-2.1.8-3 .7-1-.1-2.1-.7-2.8-1.6-.8-.9-.2-1.6.8-1.9 1.2-.3 4.1-1.5 5-1.7.1 0 .2-.2.2-.4 0-.5.1-2 .2-2.6 0-.7-.3-.9-.8-1.2-.7-.4-1.2 0-1.4-.4-.4-.5-.2-1.5.3-2.2.2-.3.5-.6.8-1 .1-.1.1-.4 0-.5-.9-1-1.9-2-2.8-3-.8-.9-1.8-2.1-.7-3.5s2.1-.5 2.9.8l.4.7c.2.3.4.1.4-.2 0-1.4.1-3.6.1-4.5 0-.3-.2-.5-.3-.5-.6-.2-1.7-.5-2.4-.5-1.4 0-2.9.5-4.4.7-1.2.2-2.5.6-3.3 1-.3.2-.6.6-.6 1.1 0 .8.1 2.1.2 3.4 0 .4.3.6.6.5 3.1-.7 5.2.1 6.8 3.6.1.2-.1.5-.3.5-1.5-.1-2.9-.4-4.3-.3-.8.1-1.4.2-1.9.2-.3 0-.4.3-.4.5 0 .6 0 1.7.2 2.7 0 .2.2.3.3.3 4.3-1.9 6.4-1.3 8.2 2.7.1.2 0 .5-.2.5-.7 0-1.3.1-1.9.1-1.4.2-5 .7-6.2.9-.2 0-.3.3-.3.5v2.3c.3.8.3 1.8.3 2.3 0 .2.2.3.3.3.3-.1.9-.3 1.4-.4 2.1-.5 3.5 1.2 4.9 3.4.2.2 0 .5-.3.5-1.4-.2-2.5-.4-3.6-.5-.8 0-1.9.2-2.4.3-.1 0-.2.2-.2.3 0 .7-.1 2.7.6 4 .8 1.7 2.5 3.9 3.6 5.5.1.1.3.5-.1.5 0 0-4.1.2-6.3-2-.8-.7-.9-5.5-1-6.9 0-.2-.2-.4-.3-.3-.6.3-1.9.8-2.5 1-1 .5-2.1.6-3.1.8-1.1.2-2.9-2.9-2.5-4.1.2-.5.8-.8 1.2-.9 1.3-.2 2.5-.2 3.8-.4.9-.1 2.4-.4 3-.5.2 0 .3-.2.3-.5 0-.7-.1-2.2-.3-3.8 0-.3-.3-.5-.4-.4-1.2.5-3 1.3-4.1 1.7-1.9.9-3.2-.3-4.4-1.8-.3-.5-.5-1.5-.3-1.9.2-.5.8-.7 1.4-.8 1.7-.3 3.5-.4 5.2-.5.7-.1 1.7-.4 2.1-.5.2-.1.3-.2.3-.4 0-.5 0-1.7-.1-2.6 0-.4-.3-.6-.7-.5-.8.4-1.8.8-2.4 1.1-2 1-3.4-.3-4.6-2.2-.3-.5-.3-1.4-.1-1.9.2-.4.8-.5 1.3-.6 1.5-.2 3-.2 4.6-.6.2-.1.8-.2 1.3-.3.1 0 .2-.2.2-.3-.1-.9-.2-3.6-.3-4 0-.3-.2-.4-.4-.4-.4.1-1.1.3-1.9.5-2.7.5-5.3 1.1-7.9-1.2-1.3-1.1-1.4-2.9-1.8-4.1-.1-.5.2-1 .5-.8 4.8 3.3 12.3 1 17.2 0 1.6-.4 3.1-1.1 4.7-1.1 1.1 0 2.5 1.1 3.7 2.2.3.2.5 0 .5-.4 0-1 0-2.5.1-3.5.2-2 .4-3.5 1.7-3.9 2.7-.8 6 4.2 7.6 6.6.2.3.7 1.1 1.2 1.9.2.3-.1.5-.3.5-2-1.3-3.8-2.2-5.8-3.1-.2-.1-.3.1-.3.3-.2 3.6-.3 6.9-.4 10.6 0 .3.3.5.4.3 2.5-2.2 4.5-4 6.5-5.8 2.4-2 4.8-4.1 7.8-4.5 1-.1 2.1.3 3.1.5.2 0 .3.2.3.5 0 .2-.1.4-.2.5-.3.2-.4.4-.7.5-6.7 1.7-11.6 7.2-16.3 12.9-.7.8-.4 2.8-.6 4.4v.7c0 .2.2.4.3.3.3-.1 3.3-2.1 5.2-2.6 2.9-1.3 5.3 0 7.3 3.8z" />
    <path d="M55.2 65.1c-.3.1-.5-.3-.5-.8s.2-.9.2-.9c.3-.1.4.4.4.8 0 .5.2.8-.1.9zm-13.3.5c.2-.1.3.3.4.7.1.5.1.8-.1.9-.2.1-.4-.3-.5-.7-.1-.3 0-.8.2-.9zm24.8-15.4c0-.4.6-.5 1.2-.5.6.1 1.1.5 1.1.8s-.5.3-1.1.2c-.6-.1-1.3-.2-1.2-.5zm-11.2-26c0-.4.6-.5 1.2-.5.6.1 1.1.5 1.1.8s-.5.3-1.1.2c-.6-.1-1.3-.2-1.2-.5zm-21.4 8.1c-.1.5-1 .7-2.1.5s-2-.6-2-1c.1-.4.9-.4 2.1-.2 1.1.2 2 .3 2 .7z" fill="#fff" />
</g><g id="white-lance">
    <path fill="url(#a)" stroke="#63451a" stroke-miterlimit="10" d="M17.4 14.3V20l9 63 23.5 8.4L73.4 83l9-63v-5.7z" />
    <path fill="#63451a" fill-opacity=".75" d="m73 77.5-23 8.2-23-8.2-9-62.7v5.1l9 62.7 23 8.2 23-8.2 9-62.7v-5.1z" />
    <path d="M55.3 25.4c.2 0 .4.1.6.2 1.8 1 2.2 2.1 2.8 4.1.7 2.6 1.2 5.2 1.9 7.7.5 2.1.4 1.9-1.1 1.4h-.1c-.4-.1-1-.3-1.4-.3-.3-.1-.4-.3-.5-.5-.2-.3-1-2.7-1.5-3.9-.2-.4-.5-.6-.9-.5-.3.1-.9.2-1.3.3-1.6.5-5.7.3-6-.2-.7-.6-.6-.8-.6-1.3 0-1.2 4.8-1.1 5.6-1 1.2.1 2.3.5 2.6.7.1.1.2 0 .2-.2.1-1.2-.3-2.8-.8-3.6-.1-.1-.1-.2-.3-.2h-.3c-2.7.1-5.3.3-8.1.5-.3 0-.6.3-.9.5-.3.3-.4.6-.5.9-.4 1.8-.7 3.6-.9 5.4-.2 1.2.2 1.5 1.3 1.4 2.3-.3 4.7-.3 7.1-.5 1.6-.1 2.9.4 4 1.5.6.5.3 1.5-.5 1.5-4.5.2-8.8.9-12.9 1.8-1.4.2-2.9-1.5-2.8-3 .5-4 1.1-7.8 1.9-11.8.3-1.8 1.7-1.6 3-1.6 2.5.1 8.9.5 10.4.7z" />
    <path d="M52.1 46.5c-.3 0 0 1.4 0 1.7.1.8.3 2.2.3 3.1 0 .3.3.5.6.4.6-.2 1.6-.4 2.1-.6 2.1-.5 2.1-.5.9-2.8-.6-1.3-.9-2.6.3-3.8 4-4.3 9.4-12.2 16.7-13 1.6-.2 2.2.9 1.6 2.2-.5 1.2-2.1 3.9-3.3 5.6-.3.4-.9.2-.9-.3l.3-2.6c0-.8-.3-.6-.7-.4-4.1 3.4-8.5 7.7-10.8 13.2-.2.3.1.8.5.7 3.7-1 7.1-1.6 9.8 1.8.3.3 0 .8-.3.8-3.4 0-10.3.9-14.9 2.1-.7.2-1.2.5-1.5.9-.4.5-.6 1.3-.5 2.2 0 .5.1 1.1 0 1.7 0 .3-.3.5-.5.4-.7-.3-1.5-.5-2.1-.8l-.3-.3c-.2-.8-.5-1.5-.7-2.1-.1-.3-.3-.5-.6-.5-2.1-.3-7.1.8-8.6.7-.9 0-3.9.3-4.2-2.9-.1-.7.3-1.4.9-1.5 2.1-.5 6.8.3 9.1.3.9 0 2.1-.1 2.6-.2.2 0 .3-.3.3-.4v-2.9c0-2.1-.1-6.9 3-7.6.2-.1.4.1.5.3.7 1.1 1.7 3.5 2.6 5.4.1.2-.1.4-.3.3-.6-.2-1.4-1-1.9-1.1zM50 70.8c.1.3-.2.7-.4.5-1.9-.9-4.2-1.9-5.9-2.9-1.8-1.1-1.7-3.7.2-4.6 4.7-2.1 13.8-3.7 17.6-4.1.4 0 .6.6.2.9-.7.3-1.4.7-2.1 1-3.2 1.4-6.3 2.8-9.5 4.1-1.5.6-1.9 1.3-1.1 2.8.2.5.7 1.5 1 2.3z" />
    <path d="M46.5 46.8c.4.3.3 1-.3.9-2.9-.3-8.1-1.1-10.9-1.6-1.9-.3-3.9-.9-5.7-1.6-2.2-.9-3.1-2.8-2.2-5 .2-.4 1-.9 1.4-.8 4.4 1.9 14 6.1 17.7 8.1z" />
    <path d="M44.9 64.2c.8-.4 2.5-1 2.9-.6.2.2-1.2.4-2 1.1s-1.9.9-2.2.7c-.1-.2.5-.7 1.3-1.2zM29.6 40.5c-.9-.1-1.5-.4-1.5-.8 0-.3.6-.2 1.4-.1.9.2 1.6.7 1.6 1 0 .4-.6 0-1.5-.1z" fill="#fff" />
</g><g id="white-pawn">
    <path fill="url(#a)" stroke="#63451a" d="M18.8 15.7v5.8l8.7 58.6L50 88.2l22.5-8.1 8.7-58.6v-5.8z" />
    <path opacity=".75" fill="#63451a" d="m72.1 76.3-22.1 8-22.1-8-8.6-60.1v5.2l8.6 58.3L50 87.6l22.1-7.9 8.6-58.3v-5.3z" />
    <path d="M50.6 35.4c-2.2 1.8-4.8 3.7-6.9 5.5-1 .9-1.7.7-2.4-.3-1.1-1.6-2.4-3.1-3.5-4.7-.9-1-1.5-.8-2.1.3-1.3 2.5-.7 4.2 2.6 6 2.1 1.2 2.1 1.2.2 2.6-2.2 1.7-2.2 3.1 0 4.8 1 .7 2.5 1.7 4.2 2.4.3.1.2.6-.1.6-3.3-.1-10.1-.4-13.3-.7-.9-.1-2.7-.4-2.7 1.3.1 1.1.6 1.9 1.2 2.2 1.7 1.1 3.7 1.3 5.6 1.2 4.1-.2 8.1-.7 12.2-1.1 1.1-.1 1.6.2 1.5 1.3-.1.7-.2 3.8-.6 3.7-.3 0-.6-.5-1-.6-2.5-.2-4.9-.3-7.4-.2-1 0-2.4.6-2.7 1.2-.3 1 1.5 1.8 2.4 2.2.7.3 1.5.2 2.4.1 1.5-.1 3-.3 4.6-.5.8-.1 1.4-.5 1.7-.3s.3.8.3 1c0 4 2.5 5.1 6 5.3.4 0 .7-.4.4-.7-2.6-3.4-1.9-7.2-2-10.9-.1-1.9.4-2.8 2.7-3.2 2.1-.4 1.9.3 1.9 1.7 0 1.3.2 3.1 1 3.8 1 .9 3.6 1.9 4.8 2.2.3.1.5-.2.3-.5-.2-.4-.5-.8-.8-1.2-1.1-1.7-1.8-3.6-1.4-5.7.2-1.1.6-1.7 1.7-1.7 3.9-.2 7.2-.4 11.3-.6h.6c.1 0 .1-.1 0-.3-.3-.7-1-1.8-1.7-2.3-3.3-2.2-7.1-.7-10.8-.4-.4 0-.7-.4-.6-.7.6-1.4 1.7-2.8 2.6-3.8 1-1.1 1.5-2.2.2-3.4-1.2-1-2.3-.4-3.1.7-1.4 1.8-2.5 3.7-3 5.6-.3.8-.4 1.6-.5 2.1-.1.6-1.8.7-2.9.7-3 .5-3.6.2-3.4-2.9 0-.6 0-2 .1-2.8 0-.2.2-.3.4-.2 1 .5 2.5 1.1 3.5 1.4.4.1.7-.3.5-.7-1-1.5-2-2.7-3.4-4.4-.4-.4-.4-.5-.7-.6-.1-.1-.8-.2-1-.1 0 0 .1-.2.7-.7 2.9-2.3 6.3-5.3 9.6-8 1.3-1 2.2-1.3 2.9 0 .9 1.4 1.6 3.1 2.6 4.7.2.3.6.2.6-.1.2-3.3-.6-6-1.7-8.5-.8-1.6-1.5-2-3-.9-2.8 2.6-10.6 9.1-10.6 9.1zM42.2 49c-.2-.3-.2-.9 0-1.2 1-1.2 2.2-2.4 3.3-3.6.3-.3.8-.1.9.3.3 2.5.6 4.8.8 7 .1.6-1.3.8-1.8.9-.1 0-.2 0-.3-.1-1.1-.8-2.2-2.2-2.9-3.3z" />
    <path d="M29.5 53.2c-.2.2 1 .8 1.7.4.9-.3 5.9-.4 9.4-.2.1.1-10-1.6-11.1-.2zm8.1-6.1c-.1-.2.2-1 .9-1.5.7-.4 1.1-.5 1.4-.4.1.1.3.6.1.7-.2.2-.5 0-1.1.5-.8.6-1.2 1-1.3.7z" fill="#fff" />
</g><g id="white-dragon">
    <path fill="url(#a)" stroke="#63451a" stroke-width="1.01" stroke-miterlimit="10" d="M11.8 5.8V11l10.6 73.5L50 94.2l27.6-9.7L88.2 11V5.8z" />
    <path fill="#63451a" fill-opacity=".75" d="M77.1 78.9 50 88.6l-27.1-9.7L12.3 6.3V11l10.6 73.1L50 93.7l27.1-9.6L87.7 11V6.3z" />
    <path fill="#c30" d="M69.9 27.6c3-2.7 6.9-1.7 9.1 2.4-1.1-.2-1.9-.3-2.9-.4-3.8-.4-6.3 2.6-9 4.7-3.3 2.5-6.5 5.2-9.7 7.8-1.4 1.2-2.8 1.8-4.2-.3-1.7 2.6-3.5 4.7-4.7 7.4-.9 1.9-1.1 4.4-1.3 6.5-.3 2.6-.3 5.1-.2 7.7.1 1.1.7 2.3 1.4 3.2 1.2 1.6 2.4 3.1 3.6 4.6.3.4 0 1-.5.8-2-.9-4.1-1.8-6.1-2.7-.2-.1-.5-.2-.6-.3-1.5-.9-2.6-2.3-2.1-4.5.6-3.6.6-7.2 1.1-10.8 0-.2-.3-.3-.4-.1-.8 1.9-1.5 4-2.3 5.9-.4.7-.8 1.5-1.5 1.9-1.8 1.5-1.8 1.5-.2 3.5l1.7 1.7c.2.2 0 .6-.3.6-2.5-.8-5.1-1.4-7.5-2.4-1.1-.5-.6-3 .8-3.6.6-.3 1.4-.4 2.1-.6.6-.2 1.3-.3 1.9-.5-1.6-3.1-1.5-3.4 1-5.6 1.7-1.6 3.1-3.3 4.9-5.1.1-.1 0-.3-.1-.3-.3 0-.6-.1-.7-.2-2.2-.4-2.9-2-2.5-4.5.8-4.8 1.5-9.7.8-14.6 0-.3-.1-.5-.4-1.4-1.4 2.1-3.2 4.6-4.3 6.6-.2.4 1 .9 1.6 1.5 2.8 2.7 2.2 3.8.5 5.9-1.6 1.8-1.4 3.1 0 4.5.6.5 1.1.9 1.6 1.6-1.9.8-6.4-.8-7-2.7-.3-.7-.3-1.4.6-2.8 3.1-3.7 3-2.6-.1-6.2-1.6-1.9-1.5-2.7.1-4.5 1.7-2.1 3.3-4.2 5.2-6.6-3.9-.8-7.3-.7-10.1 2.3-.5.5-.6 1.4-.4 2.1 1.5 3.8 3.2 11.7 2.5 13.8-1.4-3.1-2.9-6.2-3.9-8.9-.9-2.3-2.2-3.9-4-5-1.7-1.1-1.8-2.6-.2-3.9 3.2-2.6 6.8-4.4 10.8-4.4 2.4 0 5.4.6 7.7 1.1.6.1.5.2 1.5-.5 3.7-3 9.5-4 10.2-3.3-3.7 1.6-6.9 4.2-8.8 5.8-.5.4-.7.7-.6 1.7.2 5.5.1 11.9.2 17.5 0 .7 0 3 .1 4 0 .1.2.1.2 0 .3-1.3.8-3.5.9-4.5.9-4.4 2.8-7.8 5.2-11.2.6-.9.8-2.4 1.1-3.7.6-2.7 1.1-5.3 1.8-8 .4-1.4 1.4-1.9 2.6-.9 1.4 1.1 3 2.6 4.4 3.7.2.1.4.1.5-.1.8-1.6 1.5-3.8 2.4-5.2.7-1.3 1.4-1.2 2.2.1 1 1.6.7 3.1 0 4.5-1.7 3.5-5.3 10.6-6.5 13.1-.1.2.1.5.3.4 2.3-1.6 7.8-6.2 10.5-8.6zm-12.1 7.5c.7-1.2 3-8.7 2.9-9.2s-.6-.8-1.7-1.3c-.6-.2-1.1-.6-1.7-.7-.3-.1-.7-.2-.9 0-.8.7-1.5 3.2-1.3 4.8 0 .5.5.6.7.3 1.9-2.8 3.6-3.3 4-1.1.3 1.5-2.5 6.8-2.5 6.9-.3.5.2.5.5.3zm-10.1 9.3c0 .1.1.2 0 0 1.6-2 2.6-4.5 4.1-6.6 1.3-1.7.8-3.3 0-5.5-1.5 4.5-2.8 8.2-4.1 12.1z" />
    <path fill="#c30" d="M58.7 47.1c5.3-5.9 8.9-6 10.9-3.3-3 .7-6.5 2.6-8.6 5.2-.1.1 0 .3.2.3 2.3-1.2 11.2-5.2 12.9 1l-.1.1c-5.5-2-10 1.7-14.8 3.8-.9.4-1.8 1.1-2.7 1.1-.7 0-1.6-.6-2.4-1 .4-.9.6-1.9 1.2-2.7.3-.4.8-.6 1.3-.9.2-.1.2-.4 0-.5-1.1-.7-4.4-2.3-.6-5.4 2.5-2.6 3-2.8 5.8-4.9.5-.4 3.5-2.1 4.2-2-1.9 3-5.8 5.5-7.6 8.9.1.3.3.4.3.3zm6.1 7.2c-1.3 1.3-2.6 2.5-4 3.8-2 1.9-2.2 2-.5 4.2.4.5 1.7 2 2.6 3 .2.2 0 .6-.2.5-2-.4-4.9-1.9-6.5-2.8-2-1.2-2.2-2.4-.6-4.3 2.5-2.9 5.5-4.3 8.9-4.9.4-.1.6.3.3.5z" />
    <path d="M44.2 62.6c.4 0 .7.8.5 1.9-.2 1.1-.5 1.8-.9 1.9-.4 0-.3-.7-.2-1.9 0-1 .1-1.9.6-1.9zM23.3 28.4c-.2-.3.6-1.7 1.6-2.3.8-.6 2.7-1 2.9-.6.2.3-1.4 1-2.2 1.6-.9.6-2 1.7-2.3 1.3zm43.2 2.9c.2.2-.6 1.4-1.4 2.1-.8.7-2.4 1.4-2.6 1.3s1.2-1.1 2-1.7c.9-.9 1.8-1.9 2-1.7z" fill="#fff" />
</g><g id="white-horse">
    <path fill="url(#a)" stroke="#63451a" stroke-width="1.01" stroke-miterlimit="10" d="M11.8 5.8V11l10.6 73.5L50 94.2l27.6-9.7L88.2 11V5.8z" />
    <path fill="#63451a" fill-opacity=".75" d="M77.1 78.9 50 88.6l-27.1-9.7L12.3 6.3V11l10.6 73.1L50 93.7l27.1-9.6L87.7 11V6.3z" />
    <path d="M58.9 27.2c-5.1-2.9-10.3-2.9-15.3 0-5 3-8.7 7.5-10.8 13.5-1.2 3.5-.5 5 2.7 5.8 2.9.7 5.6.1 8.6-1.2 1.9-.8 3.8-2.2 5.8-2.9 1.6-.7 2.5-.1 3 .7.5.7.4 2.5-.1 3.5-.8 1.9-2.4 4.1-3.5 6-.2.2-.1.6.2.7 2.9 1.6 2.5 3.3-.4 5.8-1.5 1.3-5.4 4.2-6.9 5.5 0 0 4.1-1.5 4.8-1.8 5.4-1.7 10.7-3.9 16.3-4.8 4.3-.7 8.3 2.6 10.1 7 .1.3-.2.6-.4.4-7-5.3-13.2-2.6-19.6-.6-3.9 1.2-7.7 3-11.6 4.2-1.3.4-2.9.4-4.3.1-1-.2-2.2-.9-2.5-1.7-.3-.8-.3-1.6 1.2-2.9 2.8-2.6 6.2-5.2 9.4-7.7.2-.1.2-.4 0-.5-5-3.2-.2-5 1.4-7.5.1-.1 0-.3-.2-.2-2.4.9-4.3 2-7 2.4-4.1.7-6.5.3-9.4-.8s-4.3-4.1-3.7-7.4c2-10.7 12-23.4 24.8-22.9 3.5.1 7.3 1.3 10.4 3.1 3.1 1.9 3.6 6.9.5 8.5-3.9 2-8.1 1.8-12.4.3-1.2-.6-2.5-1.2-1.7-3 .6-1.6 1.2-2 3-1.6 2.3.5 5 .7 7.4.7.4-.1.4-.6.2-.7z" fill="#c30" />
    <path d="M62.6 58.7c.4-.2 3.5-.5 3.8.2.4.6.2.9-.3.9-1-.1-3.2-.4-4-.3-.4-.1 0-.7.5-.8zM30.9 34.5c.2-.7 2.7-5.3 3.6-5.5 1.2-.1 1.1.4.7.8-1.1 1.3-3.3 4.5-4 5.8-.4.6-.6-.4-.3-1.1z" fill="#fff" />
</g><g id="white-prosilver">
    <path fill="url(#a)" stroke="#63451a" stroke-miterlimit="10" d="M16.1 12.8v5.7l9.4 66.3L50 93.6l24.5-8.8 9.4-66.3v-5.7z" />
    <path fill="#63451a" fill-opacity=".75" d="m74 79.1-24 8.8-24-8.8-9.4-65.8v5.2L26 84.4l24 8.7 24-8.7 9.4-65.9v-5.2z" />
    <path fill="#c30" d="M36.7 23.1c0-.2.2-.3.3-.2 4.8 3.7 9.8 2.2 14.8 1.7 2.2-.3 4.4-.7 6.6-1 3.3-.4 5.6 1.4 7.6 4.5.2.2-.1.5-.3.4-2.5-1.9-7.8-1.6-10.2-1.1-.5.1-.9.3-1 .5-.4.6-.1 1.6 0 2.5 0 .2.3.3.4.1 2.1-2.7 4.8 2.7 5.2 3.6.1.3.3.7.5 1.2.3.6-.4 1.2-.9.6-1.1-1.3-2.5-2.6-3.3-3.1-2.2-1.2-2.2 1.8-2.2 1.8s-.1 2.2-.1 3.3c0 .2.2.3.3.3 3.3-1.2 6.3-.6 8.7 2.7.2.2 0 .4-.3.4-1.3-.3-2.3-.6-3.4-.6-1.1-.1-2.2.1-3.3.5-.5.2-1.3.5-1.7.7-.2.1-.3.3-.2.4.2.7.5 2.3.6 2.8.1.4.3.5.6.6.3 0 2 .5 2.6 1.5.3.5.2 1.1-.4 1.2-3.6.6-12.2 2-13.3 1.9-.4-.1-.9-.5-1.2-1.1-.3-.4-.3-1 .1-1.3.3-.3.7-.5 1-.5 2.2-.4 5-.9 7.3-1.2.3-.1.5-.4.3-.8-.5-1-1.3-2-1.7-2.4-.2-.2-.3-.3-.6-.2-.5.2-1.4.4-2.1.5-2.1.4-4.1.7-5.8-1l-.9-1.2c-.1-.1 0-.4.1-.4.6-.2 5.8-.9 8.8-1.7.2 0 .3-.2.3-.4v-2c0-.2-.2-.3-.3-.2-.9.5-3.7 1.5-5.1 1.4-1.6-.1-2.2-.6-2.4-1.4-.2-1.5 2.3-6.2 6.6-7.8.1 0 0-.1 0-.1-.7 0-1.7.1-2.2.1-2.4 0-4.8.1-7.1-.1-1.9-.1-3-2.3-2.7-5.4zm9.1 11.8c0 .1.1.1.2.1.9-.1 3.5-1 4-1.3l.2-.2c.1-.5.4-3.9-.4-4.3-.1-.1-.2 0-.3.1-1.1 1.3-3.7 5-3.7 5.6z" />
    <path fill="#c30" d="M24.2 45.8c0-.3.2-.4.4-.4.5-.1 5.7-.4 7.8-.2 1.5.2 3.1.5 4.2 1.4 5.1 3.9 13.7 14.9 13.9 15.3.2.4.6.4.8.1l.9-1.2c5.2-7.5 10.2-15.2 16.9-21.2 1.9-1.7 3.9-2.9 5.9-2.9-4.7 3.6-19.9 23.8-21.9 29.8-.3.4-.1 1.5.3 1.9.9 1.3 3.7 4 3.8 4.9-2.4-.7-5.3-2.1-7.4-3.5-1.2-.8-1.3-1.9-1-3.5.1-.3.3-1.1.5-1.5.1-.2.1-.4-.1-.6-.3-.3-.6-.6-.7-.8-4.2-5.2-8.5-10.3-14-13.6-1.9-1.2-8.8-2.9-10-3.5-.2.1-.4-.2-.3-.5z" />
    <path d="M52 62.4c.4.1.3 1 0 1.6-.3.7-.9 1.6-1.3 1.4-.4-.1-.2-.5 0-1.1.4-.7 1-2.1 1.3-1.9zm-17.8-16c0 .4-2.3.4-3 .4-.6 0-2.7-.2-2.7-.8 0-.4 1.5-.3 2.2-.3.6 0 3.4.2 3.5.7zm21.9-21.8c0-.4 2.9-.6 3.5-.6.7.1 2.5.4 2.5.8s-1.2 0-2.5-.1c-1 0-3.5.4-3.5-.1z" fill="#fff" />
</g><g id="white-proknight">
    <path fill="url(#a)" stroke="#963" stroke-miterlimit="10" d="M17.5 14.3V20l9 63L50 91.4 73.5 83l9-63v-5.7z" />
    <path fill="#63451a" fill-opacity=".75" d="m73 77.5-23 8.2-23-8.2-9-62.7v5.1l9 62.7 23 8.2 23-8.2 9-62.7v-5.1z" />
    <path fill="#c30" d="M48.5 68.1c-.4-.5-.3-.9-.3-1.3 1.1-2.5-.7-3.6-1.9-4.8-2.5-2.5-5.2-4.7-8-6.8-2.8-2.3-10.5-5.4-10.6-5.5-.4-.3-.4-.6.1-.7.2-.1 5.8-.5 8.2.3 2.3.8 4.5 2.6 6.3 4.5 2.5 2.5 4.7 5.2 7 7.9.7.8 1.2.7 1.7-.2 1.8-2.8 3.5-5.5 5.3-8.3 3.3-5.2 6.5-10.3 9.9-15.4 1.1-1.6 3.5-5.5 5.3-4.6.1 0 .2.1.2.2 1 1.7.8 4.7.7 6.6v.2c-.1.5-.7.6-.8.2-.3-.8-.7-1.8-1-2.4-.2-.3-.6-.3-.8-.1-1.9 2.4-3.5 4.6-5.1 6.8C60.6 51 56.4 57.5 53 64.3c-1 2-1.1 3.6.3 5.3.3.3.6.6.8 1 .3.4-.1.8-.5.8-2-.6-3.7-1.7-5.1-3.3z" />
    <path fill="#c30" d="M49.5 30.1c-1.9 0-3.4.2-4.8-.1-1.7-.3-1.6-1.2-1.5-1.6.3-.9 1.4-1.4 1.7-1.6 2.4-1.3 3.9-1.9 6.3-3 1.1-.4 3.6.1 3.6.1-2 .5-3.5 1.7-4.6 2.5-.1.1-.1.3.1.3 1.5.2 2.3.9 2.5 1.8.3 1-.3 3-.5 4.4 1 .3 2.2.6 3.3 1.4 1.5 1 1.7 2.5.4 3.7-1.8 1.8-3.7 3.1-6.1 3.8-.4.1-.8 1.3-.9 1.8 8.1-3.1 10.7-3 12.1.3-1.4 0-2.7-.3-4 .1-2.1.5-4.1 1.3-6.3 1.9-1.3.4-2.6.8-3.9 1-1.4.2-2.3-.9-1.9-2.4.3-.9.8-1.9 1.4-3-.6-.3-1.5-.8-1.7-2-.2-.7-.1-1.9.3-2.7.9-1.9 2.2-3.5 3.3-5.2.3-.2.6-.7 1.2-1.5zm4.7 6.2c-.9-.6-1.6-.9-2.3-.9S50.2 38 50 39c1.4-.8 2.6-1.6 4.2-2.7zm0 13.7c.3.3.2.8-.3.9-2.1.5-4.1.5-5.6.8-1.2.2-4.4 0-4.1-1 .1-.4.3-.8.8-1 2.5-.8 4.6-1.4 7.2-.8.5.1 1.5.6 2 1.1z" />
    <path d="M33.7 49.4c.5 0 2.9.7 3 1 0 .3-2.2-.4-2.9-.4-.4 0-1.1.1-1.3-.3.1-.3.6-.4 1.2-.3zm12.8.4c.5-.1.9-.1 1 .1.2.3-.4.2-.9.5-.3.2-1.1.5-1.3.2-.2-.4.6-.7 1.2-.8zM45 27.4c.5-.2.8-.4 1-.2.3.2-.3.3-.7.7-.2.3-.9.8-1.2.6-.3-.3.4-.8.9-1.1z" fill="#fff" />
</g><g id="white-prolance">
    <path fill="url(#a)" stroke="#63451a" stroke-miterlimit="10" d="M17.5 14.3V20l9 63L50 91.4 73.5 83l9-63v-5.7z" />
    <path fill="#63451a" fill-opacity=".75" d="m73 77.5-23 8.2-23-8.2-9-62.7v5.1l9 62.7 23 8.2 23-8.2 9-62.7v-5.1z" />
    <path d="M51.7 60.5c2 .3 2.4.8 1.5 2.7-.7 1.4-1.6 2.7-2.5 3.9-.7.9-1 1.4 0 2.3s2.4 2.7 3 3.6c.1.1-.1.3-.2.2-2-1.2-4.2-2.3-6-3.6-.9-.6-.8-1.8.1-2.7.4-.5 1.1-1.3 1.7-1.9.1-.1 0-.3-.2-.3-1 0-2.3-.1-3.1-.3-1.3-.4-1.4-1.2-.3-2.2 1.4-1.3 2.9-2.4 4.5-3.8-4.3.5-3.9-4.1-4-4.3 0-.2-.2-.3-.3-.3-5.3 1.4-11.7 1.7-12.3-1.4 0-.2-.1-.3-.1-.4-.1-.9.7-1.7 1.6-1.5.1 0 .1 0 .2.1 2.8 1.1 8.1 1.2 10.5.7.3-.1.4-.3.5-.5.1-1.1.3-5.7.2-6.7 0-.1-.1-.2-.2-.3-.3 0-.6-.1-.8-.2-2.1-.9-2.6-2-1.3-3.9 1.9-2.8 3.9-5.5 5.9-8.2.3-.4.6-.8 1-1.3.2-.2 0-.4-.3-.3-1.7.3-3.2.8-4.7 1-4.9.4-3.8-2-3-2.9.1-.1 3.6-3.6 9.5-4.4.3 0 2.5-.2 3.1 0 .3.1.3.4 0 .5-1.6.4-3 1-3.8 1.8-.1.1 0 .3.1.3.3 0 .6.1.8.1 1.8.2 2.7 1.3 2.2 3.1-.1.3-.8 1.7-1.1 2.3-.1.2 0 .4.2.5s.4.3.9.6c1.3 1 2.5 2 3.7 3.1s1 2.7-.4 3.5c-1.7 1-8.3 3.7-8.9 4-.2.1-.3.3-.3.5-.1 1.2.5 4.6.7 5.6.1.3.3.3.4.3 5-2.7 10.1-5.7 13.7-9.8.2-.3.4-.3.8-.5.9-.3 1.4.6 1.7 1.6.1.3-.1 1-.2 1.2-1.4 2.5-2.7 4.7-4.4 7-3.5 3.7-6.9 7.4-10.1 11.2zm9.4-15c.2-.3-.2-.6-.4-.3-2.6 2.5-9.7 6.4-11 7.2-.2.1-.3.2-.3.3-.1.8-.2 3.1.4 4.6.1.2.2.3.3.7 4.5-3.2 8.1-8 11-12.5zM49.8 40c-.1.3.2.5.3.3 1.3-.6 2.7-1.2 3.9-1.9 1.9-1.1 1.9-1.4-.2-2.4-.6-.3-1.8-.5-2-.2-.7 1.2-1.3 2.8-2 4.2z" fill="#c30" />
    <ellipse transform="rotate(-54.417 45.243 40.398)" class="st3" cx="45.2" cy="40.4" rx="1" ry=".5" />
    <ellipse transform="rotate(-49.022 62.728 42.5)" class="st3" cx="62.7" cy="42.5" rx="1.6" ry=".5" />
</g><g id="white-tokin">
    <path fill="url(#a)" stroke="#63451a" d="M18.8 15.7v5.8l8.7 58.6L50 88.2l22.5-8.1 8.7-58.6v-5.8z" />
    <path opacity=".75" fill="#63451a" d="m72.1 76.3-22.1 8-22.1-8-8.6-60.1v5.2l8.6 58.3L50 87.6l22.1-7.9 8.6-58.3v-5.3z" />
    <path d="M57.8 70.6c-2.2-.8-4.6-1.4-6.7-2.3-2.1-1-2.5-2.6-2-5 .4-2.2.7-4.5.7-6.8 0-1.7-1.3-2.5-2.7-1.7-2 1-3.8 2.2-6.3 1.2-1.3-.5-1.5-1.1-.3-1.9 1.3-.9 2.6-1.6 3.8-2.6 4.4-3.2 7.7-7.3 9.2-12.6.9-3-.9-5.5-4.1-5.5-1.7 0-3.5.3-5.2.1-1.2-.1-2.3-.5-3.2-1.4-.4-.4-.9-1.2-.9-1.9.1-.3.3-.9 1.5-.8 7.4.5 18.3.3 14.8 11.3-1.4 4.1-5.5 10.4-5.8 10.8-.2.2-.2.5.1.7s.8.4 1 .6c2.6 1.9 1.5 4.7 1.7 7.3.1 1.2-.3 2.6.1 3.7.3 1 1 2 1.7 2.9.9 1.2 2 2.2 3.1 3.3.2.3-.1.8-.5.6z" fill="#c30" />
    <path d="M49.6 65.7c-.1-.3-.1-3 .5-3.2.5-.3.7-.1.7.3-.1.9-.3 2.7-.5 3.3-.3.4-.5.1-.7-.4zM42.7 30c.3-.1 2.9 0 3.2.5s.1.7-.3.7c-1-.1-2.6-.4-3.4-.5-.2-.3.2-.6.5-.7z" fill="#fff" />
</g><radialGradient id="check_gradient"><stop offset="0%" stop-color="#ff0000" stop-opacity="1.0" /><stop offset="50%" stop-color="#e70000" stop-opacity="1.0" /><stop offset="100%" stop-color="#9e0000" stop-opacity="0.0" /></radialGradient></defs><rect x="0" y="0" width="99" height="108" shape-rendering="crispEdges" stroke="none" fill="#262421" /><rect x="99" y="0" width="99" height="108" shape-rendering="crispEdges" stroke="none" fill="#bababa" /><rect x="198" y="0" width="99" height="108" shape-rendering="crispEdges" stroke="none" fill="#bf811d" /><rect x="297" y="0" width="99" height="108" shape-rendering="crispEdges" stroke="none" fill="#b72fc6" /><rect x="396" y="0" width="99" height="108" shape-rendering="crispEdges" stroke="none" fill="#706f6e" /><rect x="495" y="0" width="99" height="108" shape-rendering="crispEdges" stroke="none" fill="#6a6b6b" /><rect x="594" y="0" width="99" height="108" shape-rendering="crispEdges" stroke="none" fill="#ffffff" /><rect x="792" y="216" width="396" height="756" stroke="none" fill="#6a6b6b" /><svg x="792" y="216" width="99" height="108" viewBox="5 5 90 90"><use opacity="0.1" xlink:href="#black-pawn" /></svg><svg x="792" y="324" width="99" height="108" viewBox="5 5 90 90"><use opacity="0.1" xlink:href="#black-lance" /></svg><svg x="792" y="432" width="99" height="108" viewBox="5 5 90 90"><use opacity="0.1" xlink:href="#black-knight" /></svg><svg x="792" y="540" width="99" height="108" viewBox="5 5 90 90"><use opacity="0.1" xlink:href="#black-silver" /></svg><svg x="792" y="648" width="99" height="108" viewBox="5 5 90 90"><use opacity="0.1" xlink:href="#black-gold" /></svg><svg x="792" y="756" width="99" height="108" viewBox="5 5 90 90"><use opacity="0.1" xlink:href="#black-bishop" /></svg><svg x="792" y="864" width="99" height="108" viewBox="5 5 90 90"><use opacity="0.1" xlink:href="#black-rook" /></svg><svg x="891" y="216" width="99" height="108" viewBox="5 5 90 90"><use opacity="0.1" xlink:href="#white-pawn" /></svg><svg x="891" y="324" width="99" height="108" viewBox="5 5 90 90"><use opacity="0.1" xlink:href="#white-lance" /></svg><svg x="891" y="432" width="99" height="108" viewBox="5 5 90 90"><use opacity="0.1" xlink:href="#white-knight" /></svg><svg x="891" y="540" width="99" height="108" viewBox="5 5 90 90"><use opacity="0.1" xlink:href="#white-silver" /></svg><svg x="891" y="648" width="99" height="108" viewBox="5 5 90 90"><use opacity="0.1" xlink:href="#white-gold" /></svg><svg x="891" y="756" width="99" height="108" viewBox="5 5 90 90"><use opacity="0.1" xlink:href="#white-bishop" /></svg><svg x="891" y="864" width="99" height="108" viewBox="5 5 90 90"><use opacity="0.1" xlink:href="#white-rook" /></svg><svg x="990" y="216" width="99" height="108" viewBox="5 5 90 90"><use opacity="1.0" xlink:href="#black-pawn" /></svg><rect transform="translate(1049.4, 280.8)" width="39.6" height="39.6" stroke="#fff" stroke-width="2" rx="8" fill="#262421" /><svg x="990" y="324" width="99" height="108" viewBox="5 5 90 90"><use opacity="1.0" xlink:href="#black-lance" /></svg><rect transform="translate(1049.4, 388.8)" width="39.6" height="39.6" stroke="#fff" stroke-width="2" rx="8" fill="#262421" /><svg x="990" y="432" width="99" height="108" viewBox="5 5 90 90"><use opacity="1.0" xlink:href="#black-knight" /></svg><rect transform="translate(1049.4, 496.8)" width="39.6" height="39.6" stroke="#fff" stroke-width="2" rx="8" fill="#262421" /><svg x="990" y="540" width="99" height="108" viewBox="5 5 90 90"><use opacity="1.0" xlink:href="#black-silver" /></svg><rect transform="translate(1049.4, 604.8)" width="39.6" height="39.6" stroke="#fff" stroke-width="2" rx="8" fill="#262421" /><svg x="990" y="648" width="99" height="108" viewBox="5 5 90 90"><use opacity="1.0" xlink:href="#black-gold" /></svg><rect transform="translate(1049.4, 712.8)" width="39.6" height="39.6" stroke="#fff" stroke-width="2" rx="8" fill="#262421" /><svg x="990" y="756" width="99" height="108" viewBox="5 5 90 90"><use opacity="1.0" xlink:href="#black-bishop" /></svg><rect transform="translate(1049.4, 820.8)" width="39.6" height="39.6" stroke="#fff" stroke-width="2" rx="8" fill="#262421" /><svg x="990" y="864" width="99" height="108" viewBox="5 5 90 90"><use opacity="1.0" xlink:href="#black-rook" /></svg><rect transform="translate(1049.4, 928.8)" width="39.6" height="39.6" stroke="#fff" stroke-width="2" rx="8" fill="#262421" /><svg x="1089" y="216" width="99" height="108" viewBox="5 5 90 90"><use opacity="1.0" xlink:href="#white-pawn" /></svg><rect transform="translate(1148.4, 280.8)" width="39.6" height="39.6" stroke="#fff" stroke-width="2" rx="8" fill="#262421" /><svg x="1089" y="324" width="99" height="108" viewBox="5 5 90 90"><use opacity="1.0" xlink:href="#white-lance" /></svg><rect transform="translate(1148.4, 388.8)" width="39.6" height="39.6" stroke="#fff" stroke-width="2" rx="8" fill="#262421" /><svg x="1089" y="432" width="99" height="108" viewBox="5 5 90 90"><use opacity="1.0" xlink:href="#white-knight" /></svg><rect transform="translate(1148.4, 496.8)" width="39.6" height="39.6" stroke="#fff" stroke-width="2" rx="8" fill="#262421" /><svg x="1089" y="540" width="99" height="108" viewBox="5 5 90 90"><use opacity="1.0" xlink:href="#white-silver" /></svg><rect transform="translate(1148.4, 604.8)" width="39.6" height="39.6" stroke="#fff" stroke-width="2" rx="8" fill="#262421" /><svg x="1089" y="648" width="99" height="108" viewBox="5 5 90 90"><use opacity="1.0" xlink:href="#white-gold" /></svg><rect transform="translate(1148.4, 712.8)" width="39.6" height="39.6" stroke="#fff" stroke-width="2" rx="8" fill="#262421" /><svg x="1089" y="756" width="99" height="108" viewBox="5 5 90 90"><use opacity="1.0" xlink:href="#white-bishop" /></svg><rect transform="translate(1148.4, 820.8)" width="39.6" height="39.6" stroke="#fff" stroke-width="2" rx="8" fill="#262421" /><svg x="1089" y="864" width="99" height="108" viewBox="5 5 90 90"><use opacity="1.0" xlink:href="#white-rook" /></svg><rect transform="translate(1148.4, 928.8)" width="39.6" height="39.6" stroke="#fff" stroke-width="2" rx="8" fill="#262421" /><circle cx="1039.5" cy="162.0" r="7" fill="#000" /><rect x="0" y="108" width="99" height="108" stroke="#000" stroke-width="2" fill="#fabb54" /><svg x="0" y="108" width="99" height="108" viewBox="5 5 90 90"><use xlink:href="#white-king" /></svg><rect x="0" y="216" width="99" height="108" stroke="#000" stroke-width="2" fill="#fabb54" /><svg x="0" y="216" width="99" height="108" viewBox="5 5 90 90"><use xlink:href="#black-king" /></svg><rect x="0" y="324" width="99" height="108" stroke="#000" stroke-width="2" fill="#fabb54" /><svg x="0" y="324" width="99" height="108" viewBox="5 5 90 90"><use xlink:href="#white-rook" /></svg><rect x="0" y="432" width="99" height="108" stroke="#000" stroke-width="2" fill="#fabb54" /><svg x="0" y="432" width="99" height="108" viewBox="5 5 90 90"><use xlink:href="#black-rook" /></svg><rect x="0" y="540" width="99" height="108" stroke="#000" stroke-width="2" fill="#fabb54" /><svg x="0" y="540" width="99" height="108" viewBox="5 5 90 90"><use xlink:href="#white-bishop" /></svg><rect x="0" y="648" width="99" height="108" stroke="#000" stroke-width="2" fill="#fabb54" /><svg x="0" y="648" width="99" height="108" viewBox="5 5 90 90"><use xlink:href="#black-bishop" /></svg><rect x="0" y="756" width="99" height="108" stroke="#000" stroke-width="2" fill="#fabb54" /><svg x="0" y="756" width="99" height="108" viewBox="5 5 90 90"><use xlink:href="#white-gold" /></svg><rect x="0" y="864" width="99" height="108" stroke="#000" stroke-width="2" fill="#fabb54" /><svg x="0" y="864" width="99" height="108" viewBox="5 5 90 90"><use xlink:href="#black-gold" /></svg><rect x="99" y="108" width="99" height="108" stroke="#000" stroke-width="2" fill="#d3bf31" /><svg x="99" y="108" width="99" height="108" viewBox="5 5 90 90"><use xlink:href="#white-king" /></svg><rect x="99" y="216" width="99" height="108" stroke="#000" stroke-width="2" fill="#d3bf31" /><svg x="99" y="216" width="99" height="108" viewBox="5 5 90 90"><use xlink:href="#black-king" /></svg><rect x="99" y="324" width="99" height="108" stroke="#000" stroke-width="2" fill="#d3bf31" /><svg x="99" y="324" width="99" height="108" viewBox="5 5 90 90"><use xlink:href="#white-rook" /></svg><rect x="99" y="432" width="99" height="108" stroke="#000" stroke-width="2" fill="#d3bf31" /><svg x="99" y="432" width="99" height="108" viewBox="5 5 90 90"><use xlink:href="#black-rook" /></svg><rect x="99" y="540" width="99" height="108" stroke="#000" stroke-width="2" fill="#d3bf31" /><svg x="99" y="540" width="99" height="108" viewBox="5 5 90 90"><use xlink:href="#white-bishop" /></svg><rect x="99" y="648" width="99" height="108" stroke="#000" stroke-width="2" fill="#d3bf31" /><svg x="99" y="648" width="99" height="108" viewBox="5 5 90 90"><use xlink:href="#black-bishop" /></svg><rect x="99" y="756" width="99" height="108" stroke="#000" stroke-width="2" fill="#d3bf31" /><svg x="99" y="756" width="99" height="108" viewBox="5 5 90 90"><use xlink:href="#white-gold" /></svg><rect x="99" y="864" width="99" height="108" stroke="#000" stroke-width="2" fill="#d3bf31" /><svg x="99" y="864" width="99" height="108" viewBox="5 5 90 90"><use xlink:href="#black-gold" /></svg><rect x="198" y="108" width="99" height="108" stroke="#000" stroke-width="2" fill="#fabb54" /><svg x="198" y="108" width="99" height="108" viewBox="5 5 90 90"><use xlink:href="#white-silver" /></svg><rect x="198" y="216" width="99" height="108" stroke="#000" stroke-width="2" fill="#fabb54" /><svg x="198" y="216" width="99" height="108" viewBox="5 5 90 90"><use xlink:href="#black-silver" /></svg><rect x="198" y="324" width="99" height="108" stroke="#000" stroke-width="2" fill="#fabb54" /><svg x="198" y="324" width="99" height="108" viewBox="5 5 90 90"><use xlink:href="#white-knight" /></svg><rect x="198" y="432" width="99" height="108" stroke="#000" stroke-width="2" fill="#fabb54" /><svg x="198" y="432" width="99" height="108" viewBox="5 5 90 90"><use xlink:href="#black-knight" /></svg><rect x="198" y="540" width="99" height="108" stroke="#000" stroke-width="2" fill="#fabb54" /><svg x="198" y="540" width="99" height="108" viewBox="5 5 90 90"><use xlink:href="#white-lance" /></svg><rect x="198" y="648" width="99" height="108" stroke="#000" stroke-width="2" fill="#fabb54" /><svg x="198" y="648" width="99" height="108" viewBox="5 5 90 90"><use xlink:href="#black-lance" /></svg><rect x="198" y="756" width="99" height="108" stroke="#000" stroke-width="2" fill="#fabb54" /><svg x="198" y="756" width="99" height="108" viewBox="5 5 90 90"><use xlink:href="#white-pawn" /></svg><rect x="198" y="864" width="99" height="108" stroke="#000" stroke-width="2" fill="#fabb54" /><svg x="198" y="864" width="99" height="108" viewBox="5 5 90 90"><use xlink:href="#black-pawn" /></svg><rect x="297" y="108" width="99" height="108" stroke="#000" stroke-width="2" fill="#d3bf31" /><svg x="297" y="108" width="99" height="108" viewBox="5 5 90 90"><use xlink:href="#white-silver" /></svg><rect x="297" y="216" width="99" height="108" stroke="#000" stroke-width="2" fill="#d3bf31" /><svg x="297" y="216" width="99" height="108" viewBox="5 5 90 90"><use xlink:href="#black-silver" /></svg><rect x="297" y="324" width="99" height="108" stroke="#000" stroke-width="2" fill="#d3bf31" /><svg x="297" y="324" width="99" height="108" viewBox="5 5 90 90"><use xlink:href="#white-knight" /></svg><rect x="297" y="432" width="99" height="108" stroke="#000" stroke-width="2" fill="#d3bf31" /><svg x="297" y="432" width="99" height="108" viewBox="5 5 90 90"><use xlink:href="#black-knight" /></svg><rect x="297" y="540" width="99" height="108" stroke="#000" stroke-width="2" fill="#d3bf31" /><svg x="297" y="540" width="99" height="108" viewBox="5 5 90 90"><use xlink:href="#white-lance" /></svg><rect x="297" y="648" width="99" height="108" stroke="#000" stroke-width="2" fill="#d3bf31" /><svg x="297" y="648" width="99" height="108" viewBox="5 5 90 90"><use xlink:href="#black-lance" /></svg><rect x="297" y="756" width="99" height="108" stroke="#000" stroke-width="2" fill="#d3bf31" /><svg x="297" y="756" width="99" height="108" viewBox="5 5 90 90"><use xlink:href="#white-pawn" /></svg><rect x="297" y="864" width="99" height="108" stroke="#000" stroke-width="2" fill="#d3bf31" /><svg x="297" y="864" width="99" height="108" viewBox="5 5 90 90"><use xlink:href="#black-pawn" /></svg><rect x="396" y="108" width="99" height="108" stroke="#000" stroke-width="2" fill="#fabb54" /><svg x="396" y="108" width="99" height="108" viewBox="5 5 90 90"><use xlink:href="#white-dragon" /></svg><rect x="396" y="216" width="99" height="108" stroke="#000" stroke-width="2" fill="#fabb54" /><svg x="396" y="216" width="99" height="108" viewBox="5 5 90 90"><use xlink:href="#black-dragon" /></svg><rect x="396" y="324" width="99" height="108" stroke="#000" stroke-width="2" fill="#fabb54" /><svg x="396" y="324" width="99" height="108" viewBox="5 5 90 90"><use xlink:href="#white-horse" /></svg><rect x="396" y="432" width="99" height="108" stroke="#000" stroke-width="2" fill="#fabb54" /><svg x="396" y="432" width="99" height="108" viewBox="5 5 90 90"><use xlink:href="#black-horse" /></svg><rect x="396" y="540" width="99" height="108" stroke="#000" stroke-width="2" fill="#fabb54" /><svg x="396" y="540" width="99" height="108" viewBox="5 5 90 90"><use xlink:href="#white-prosilver" /></svg><rect x="396" y="648" width="99" height="108" stroke="#000" stroke-width="2" fill="#fabb54" /><svg x="396" y="648" width="99" height="108" viewBox="5 5 90 90"><use xlink:href="#black-prosilver" /></svg><rect x="396" y="756" width="99" height="108" stroke="#000" stroke-width="2" fill="#fabb54" /><svg x="396" y="756" width="99" height="108" viewBox="5 5 90 90"><use xlink:href="#white-proknight" /></svg><rect x="396" y="864" width="99" height="108" stroke="#000" stroke-width="2" fill="#fabb54" /><svg x="396" y="864" width="99" height="108" viewBox="5 5 90 90"><use xlink:href="#black-proknight" /></svg><rect x="495" y="108" width="99" height="108" stroke="#000" stroke-width="2" fill="#d3bf31" /><svg x="495" y="108" width="99" height="108" viewBox="5 5 90 90"><use xlink:href="#white-dragon" /></svg><rect x="495" y="216" width="99" height="108" stroke="#000" stroke-width="2" fill="#d3bf31" /><svg x="495" y="216" width="99" height="108" viewBox="5 5 90 90"><use xlink:href="#black-dragon" /></svg><rect x="495" y="324" width="99" height="108" stroke="#000" stroke-width="2" fill="#d3bf31" /><svg x="495" y="324" width="99" height="108" viewBox="5 5 90 90"><use xlink:href="#white-horse" /></svg><rect x="495" y="432" width="99" height="108" stroke="#000" stroke-width="2" fill="#d3bf31" /><svg x="495" y="432" width="99" height="108" viewBox="5 5 90 90"><use xlink:href="#black-horse" /></svg><rect x="495" y="540" width="99" height="108" stroke="#000" stroke-width="2" fill="#d3bf31" /><svg x="495" y="540" width="99" height="108" viewBox="5 5 90 90"><use xlink:href="#white-prosilver" /></svg><rect x="495" y="648" width="99" height="108" stroke="#000" stroke-width="2" fill="#d3bf31" /><svg x="495" y="648" width="99" height="108" viewBox="5 5 90 90"><use xlink:href="#black-prosilver" /></svg><rect x="495" y="756" width="99" height="108" stroke="#000" stroke-width="2" fill="#d3bf31" /><svg x="495" y="756" width="99" height="108" viewBox="5 5 90 90"><use xlink:href="#white-proknight" /></svg><rect x="495" y="864" width="99" height="108" stroke="#000" stroke-width="2" fill="#d3bf31" /><svg x="495" y="864" width="99" height="108" viewBox="5 5 90 90"><use xlink:href="#black-proknight" /></svg><rect x="594" y="108" width="99" height="108" stroke="#000" stroke-width="2" fill="#fabb54" /><svg x="594" y="108" width="99" height="108" viewBox="5 5 90 90"><use xlink:href="#white-prolance" /></svg><rect x="594" y="216" width="99" height="108" stroke="#000" stroke-width="2" fill="#fabb54" /><svg x="594" y="216" width="99" height="108" viewBox="5 5 90 90"><use xlink:href="#black-prolance" /></svg><rect x="594" y="324" width="99" height="108" stroke="#000" stroke-width="2" fill="#fabb54" /><svg x="594" y="324" width="99" height="108" viewBox="5 5 90 90"><use xlink:href="#white-tokin" /></svg><rect x="594" y="432" width="99" height="108" stroke="#000" stroke-width="2" fill="#fabb54" /><svg x="594" y="432" width="99" height="108" viewBox="5 5 90 90"><use xlink:href="#black-tokin" /></svg><rect x="594" y="540" width="99" height="108" stroke="#000" stroke-width="2" fill="#fabb54" /><rect x="594" y="540" width="99" height="108" fill="url(#check_gradient)" /><svg x="594" y="540" width="99" height="108" viewBox="5 5 90 90"><use xlink:href="#white-tama" /></svg><rect x="594" y="648" width="99" height="108" stroke="#000" stroke-width="2" fill="#fabb54" /><rect x="594" y="648" width="99" height="108" fill="url(#check_gradient)" /><svg x="594" y="648" width="99" height="108" viewBox="5 5 90 90"><use xlink:href="#black-tama" /></svg><rect x="594" y="756" width="99" height="108" stroke="#000" stroke-width="2" fill="#fabb54" /><rect x="594" y="756" width="99" height="108" fill="url(#check_gradient)" /><svg x="594" y="756" width="99" height="108" viewBox="5 5 90 90"><use xlink:href="#white-king" /></svg><rect x="594" y="864" width="99" height="108" stroke="#000" stroke-width="2" fill="#fabb54" /><rect x="594" y="864" width="99" height="108" fill="url(#check_gradient)" /><svg x="594" y="864" width="99" height="108" viewBox="5 5 90 90"><use xlink:href="#black-king" /></svg><rect x="693" y="108" width="99" height="108" stroke="#000" stroke-width="2" fill="#d3bf31" /><svg x="693" y="108" width="99" height="108" viewBox="5 5 90 90"><use xlink:href="#white-prolance" /></svg><rect x="693" y="216" width="99" height="108" stroke="#000" stroke-width="2" fill="#d3bf31" /><svg x="693" y="216" width="99" height="108" viewBox="5 5 90 90"><use xlink:href="#black-prolance" /></svg><rect x="693" y="324" width="99" height="108" stroke="#000" stroke-width="2" fill="#d3bf31" /><svg x="693" y="324" width="99" height="108" viewBox="5 5 90 90"><use xlink:href="#white-tokin" /></svg><rect x="693" y="432" width="99" height="108" stroke="#000" stroke-width="2" fill="#d3bf31" /><svg x="693" y="432" width="99" height="108" viewBox="5 5 90 90"><use xlink:href="#black-tokin" /></svg><rect x="693" y="540" width="99" height="108" stroke="#000" stroke-width="2" fill="#d3bf31" /><rect x="693" y="540" width="99" height="108" fill="url(#check_gradient)" /><svg x="693" y="540" width="99" height="108" viewBox="5 5 90 90"><use xlink:href="#white-tama" /></svg><rect x="693" y="648" width="99" height="108" stroke="#000" stroke-width="2" fill="#d3bf31" /><rect x="693" y="648" width="99" height="108" fill="url(#check_gradient)" /><svg x="693" y="648" width="99" height="108" viewBox="5 5 90 90"><use xlink:href="#black-tama" /></svg><rect x="693" y="756" width="99" height="108" stroke="#000" stroke-width="2" fill="#d3bf31" /><rect x="693" y="756" width="99" height="108" fill="url(#check_gradient)" /><svg x="693" y="756" width="99" height="108" viewBox="5 5 90 90"><use xlink:href="#white-king" /></svg><rect x="693" y="864" width="99" height="108" stroke="#000" stroke-width="2" fill="#d3bf31" /><rect x="693" y="864" width="99" height="108" fill="url(#check_gradient)" /><svg x="693" y="864" width="99" height="108" viewBox="5 5 90 90"><use xlink:href="#black-king" /></svg><rect x="792" y="0" width="99" height="108" stroke="#000" stroke-width="2" fill="#fabb54" /><svg x="792" y="0" width="99" height="108" viewBox="5 5 90 90"><use xlink:href="#white-tama" /></svg><rect x="792" y="108" width="99" height="108" stroke="#000" stroke-width="2" fill="#fabb54" /><svg x="792" y="108" width="99" height="108" viewBox="5 5 90 90"><use xlink:href="#black-tama" /></svg><rect x="891" y="0" width="99" height="108" stroke="#000" stroke-width="2" fill="#d3bf31" /><svg x="891" y="0" width="99" height="108" viewBox="5 5 90 90"><use xlink:href="#white-tama" /></svg><rect x="891" y="108" width="99" height="108" stroke="#000" stroke-width="2" fill="#d3bf31" /><svg x="891" y="108" width="99" height="108" viewBox="5 5 90 90"><use xlink:href="#black-tama" /></svg><rect x="990" y="0" width="99" height="108" stroke="#000" stroke-width="2" fill="#fabb54" /><rect x="1089" y="0" width="99" height="108" stroke="#000" stroke-width="2" fill="#d3bf31" /></svg>